<?xml version="1.0" standalone="no"?>
<!DOCTYPE svg PUBLIC "-//W3C//DTD SVG 20010904//EN"
 "http://www.w3.org/TR/2001/REC-SVG-20010904/DTD/svg10.dtd">
<svg version="1.0" xmlns="http://www.w3.org/2000/svg"
 width="1300.000000pt" height="860.000000pt" viewBox="0 0 1300.000000 860.000000"
 preserveAspectRatio="xMidYMid meet">

<g transform="translate(0.000000,860.000000) scale(0.100000,-0.100000)"
fill="#000000" stroke="none">
<path d="M0 8390 l0 -213 200 6 c172 5 200 4 200 -8 0 -11 -15 -15 -62 -17
-241 -6 554 -15 1515 -17 851 -1 1147 1 1147 10 0 6 -7 9 -15 5 -9 -3 -15 0
-15 9 0 9 6 12 17 8 13 -5 15 -2 10 18 -4 13 -7 63 -7 110 l0 86 -72 7 c-191
16 -270 19 -277 8 -4 -7 -19 -4 -46 8 -24 12 -63 19 -96 20 -102 0 -179 12
-179 26 0 11 -19 14 -80 14 -47 0 -80 -4 -80 -10 0 -6 -33 -10 -80 -10 -47 0
-80 4 -80 10 0 6 -18 10 -40 10 -22 0 -40 5 -40 10 0 6 -60 10 -159 10 -88 0
-161 4 -163 9 -2 5 -143 10 -333 11 -384 2 -465 7 -465 26 0 11 -19 14 -80 14
-47 0 -80 -4 -80 -10 0 -6 -33 -10 -80 -10 -47 0 -80 4 -80 10 0 6 -18 10 -40
10 -22 0 -40 5 -40 10 0 13 -77 13 -82 1 -1 -5 -22 -1 -46 10 -30 14 -74 21
-157 26 l-115 6 0 -213z m480 -15 c0 -11 -11 -15 -40 -15 -29 0 -40 4 -40 15
0 11 11 15 40 15 29 0 40 -4 40 -15z m2000 -160 c0 -12 20 -15 120 -15 100 0
120 3 120 15 0 13 20 15 120 15 113 0 120 -1 120 -20 0 -20 -6 -20 -362 -18
-200 1 -326 4 -280 5 64 3 82 7 82 18 0 11 12 15 40 15 29 0 40 -4 40 -15z
m-337 -22 c-13 -2 -33 -2 -45 0 -13 2 -3 4 22 4 25 0 35 -2 23 -4z m720 -30
c-13 -2 -33 -2 -45 0 -13 2 -3 4 22 4 25 0 35 -2 23 -4z"/>
<path d="M10000 8585 c0 -11 11 -15 40 -15 22 0 40 -4 40 -10 0 -12 77 -14 82
-2 2 5 145 6 318 2 173 -4 317 -3 318 2 2 4 25 8 52 8 40 0 52 -4 68 -25 11
-14 24 -25 28 -25 5 0 15 -14 23 -31 9 -20 16 -27 21 -19 10 16 20 -23 20 -82
0 -26 -4 -50 -10 -53 -5 -3 -10 1 -10 11 0 13 -3 14 -15 4 -8 -7 -15 -21 -15
-31 0 -9 -14 -28 -31 -40 -29 -20 -43 -22 -240 -25 -201 -2 -209 -2 -209 17 0
16 -7 19 -40 19 -22 0 -40 5 -40 10 0 6 -33 10 -80 10 -47 0 -80 4 -80 10 0
25 -210 6 -248 -23 -15 -12 2 -37 27 -37 13 0 14 -2 2 -9 -11 -7 -5 -11 22
-16 20 -4 37 -11 37 -16 0 -5 19 -10 43 -11 l42 -1 -45 -7 c-26 -4 38 -8 158
-8 196 -2 202 -1 202 18 0 17 7 20 40 20 36 0 40 -2 40 -25 0 -22 4 -25 38
-26 20 0 46 -4 56 -8 18 -7 18 -8 -5 -14 -13 -4 -40 -8 -59 -9 -83 -4 227 -15
466 -17 299 -1 384 -7 384 -27 0 -10 -13 -14 -40 -14 -36 0 -40 -2 -40 -25 0
-22 -4 -25 -40 -25 l-40 0 0 -40 0 -40 -90 0 -90 0 0 -40 0 -40 -70 0 c-56 0
-70 -3 -70 -15 0 -12 -17 -15 -82 -17 -73 -2 -68 -3 42 -8 123 -6 124 -6 40
-9 -75 -4 -80 -5 -40 -11 25 -4 -598 -8 -1385 -9 l-1430 -2 48 -24 c84 -42 79
-26 73 -234 -9 -285 -9 -283 -33 -314 -12 -16 -25 -49 -28 -75 -4 -26 -9 -55
-11 -64 -3 -10 3 -19 16 -23 11 -4 27 -17 36 -30 14 -21 14 -29 -2 -84 -15
-54 -19 -61 -42 -61 -14 0 -34 8 -44 17 -12 11 -41 19 -82 21 -61 4 -62 4 -89
-31 -43 -56 -34 -125 27 -206 14 -19 26 -42 26 -51 0 -28 -35 -52 -71 -48 -30
3 -33 6 -50 68 -11 40 -20 114 -23 190 -3 69 -5 129 -6 135 0 5 -4 5 -10 -1
-17 -17 -40 -153 -40 -234 0 -61 -4 -83 -19 -101 -17 -21 -21 -22 -36 -9 -16
13 -17 29 -12 150 4 74 9 174 13 222 5 65 3 92 -6 103 -7 9 -14 35 -15 58 -2
23 -9 57 -16 75 -17 40 -5 52 53 52 32 0 39 -4 53 -34 13 -28 23 -34 55 -39
22 -3 60 -19 85 -36 50 -34 60 -37 70 -20 10 16 -23 47 -59 55 -17 3 -36 11
-43 16 -8 7 -10 90 -8 318 4 309 4 309 -18 325 -30 21 -34 20 -47 -20 -8 -24
-19 -37 -37 -41 -34 -9 -53 13 -64 72 -5 26 -11 50 -14 52 -16 16 -20 -35 -23
-269 l-4 -259 -38 -40 c-28 -30 -36 -45 -33 -64 3 -15 -1 -32 -11 -41 -10 -10
-16 -33 -16 -61 0 -37 -3 -44 -20 -44 -10 0 -34 15 -52 33 -18 18 -54 48 -80
66 l-48 34 -1 266 c-1 286 -4 330 -19 345 -7 7 -10 6 -10 -3 0 -7 -7 -37 -16
-67 -14 -49 -18 -54 -45 -54 -16 0 -38 9 -49 20 -20 20 -20 20 -25 -3 -3 -12
-6 -119 -8 -237 -2 -118 -7 -227 -11 -241 -7 -22 -4 -28 23 -39 19 -7 37 -26
48 -49 13 -27 30 -43 59 -55 28 -11 46 -27 57 -51 15 -32 18 -34 47 -24 53 19
60 9 60 -86 0 -47 5 -106 11 -130 10 -39 9 -50 -9 -84 l-21 -40 79 -87 c209
-228 295 -441 294 -724 -1 -171 -29 -300 -105 -477 -89 -209 -371 -480 -607
-584 -49 -22 -69 -35 -60 -41 7 -4 11 -8 8 -8 -54 -7 -92 -7 -80 1 10 6 -5 9
-46 9 -62 0 -115 19 -144 51 -17 18 -131 39 -193 35 -26 -2 -46 3 -60 15 -13
11 -17 18 -9 19 7 0 11 4 7 9 -9 16 27 79 49 85 12 3 36 6 54 6 17 0 32 5 32
11 0 6 9 8 20 4 11 -3 20 -2 20 3 0 5 30 12 66 15 70 7 202 43 219 60 7 7 3 7
-10 3 -117 -44 -547 -70 -753 -47 -112 13 -228 40 -290 68 -20 9 -40 15 -44
15 -5 -1 -8 3 -8 8 0 6 -6 10 -12 8 -19 -3 -59 12 -53 21 2 4 -8 14 -23 22
-15 7 -43 26 -63 41 -20 15 -41 28 -46 28 -11 0 -99 91 -141 146 -64 84 -135
252 -151 357 -12 85 3 56 22 -42 20 -98 66 -200 136 -296 28 -38 51 -66 51
-61 0 4 21 -13 48 -39 190 -189 438 -256 887 -240 275 9 433 40 578 112 56 28
203 137 210 156 2 7 8 9 12 5 4 -4 2 -16 -6 -25 -7 -10 3 -3 24 16 20 19 34
37 31 40 -3 3 -12 -3 -20 -13 -7 -11 -17 -17 -20 -13 -3 3 6 18 21 34 14 15
42 54 61 87 134 226 142 429 25 670 -45 94 -115 176 -215 254 -69 54 -82 61
-221 109 -94 33 -109 36 -250 39 -293 7 -709 9 -660 3 48 -6 49 -6 10 -7 -22
-1 -78 -9 -125 -18 -77 -15 -116 -21 -160 -23 -13 -1 -13 -3 0 -12 13 -9 12
-10 -2 -5 -21 6 -50 -3 -43 -14 3 -4 -13 -17 -35 -29 -57 -30 -193 -135 -205
-159 -5 -11 -27 -45 -48 -75 -46 -67 -83 -170 -102 -285 -12 -75 -14 -79 -11
-29 1 32 -1 60 -5 63 -12 7 -22 -102 -15 -153 3 -26 3 -43 -1 -39 -5 4 -10 50
-13 102 -3 52 -9 94 -15 95 -11 0 -11 0 -20 -84 -4 -31 -11 -55 -16 -52 -5 4
-9 -5 -9 -18 0 -14 -6 -24 -15 -24 -15 0 -29 39 -38 102 -2 17 -5 2 -6 -32 0
-35 -5 -63 -9 -63 -16 0 -32 24 -32 48 0 13 -5 33 -11 44 -11 20 -15 43 -18
108 -2 23 -2 24 -13 6 -7 -13 -9 -61 -5 -145 4 -77 3 -118 -3 -106 -6 13 -7 3
-3 -30 3 -27 10 -58 15 -68 5 -9 7 -21 4 -26 -6 -9 31 -129 46 -147 4 -6 15
-36 24 -65 9 -30 22 -65 31 -77 8 -13 12 -26 10 -29 -3 -2 10 -21 29 -41 19
-20 34 -44 34 -53 0 -9 7 -22 15 -29 8 -7 15 -17 15 -22 0 -10 99 -109 155
-155 18 -16 22 -23 11 -23 -8 0 -18 5 -21 10 -7 12 -25 13 -25 2 0 -5 18 -18
40 -31 22 -12 40 -26 40 -30 0 -4 16 -13 35 -21 19 -7 33 -16 30 -19 -3 -2 26
-20 65 -39 38 -19 68 -37 65 -42 -2 -4 30 -18 73 -31 82 -24 76 -36 -14 -24
-39 5 -57 12 -64 26 -6 10 -16 19 -23 19 -27 0 -156 70 -226 123 -40 30 -103
84 -138 119 -67 64 -176 203 -196 248 -7 14 -14 27 -18 30 -12 9 -61 113 -94
199 l-33 86 -71 6 c-52 4 -79 11 -101 28 -17 12 -41 21 -53 19 -20 -3 -22 -10
-25 -66 -2 -36 -7 -60 -12 -57 -6 4 -10 15 -10 26 0 38 -58 93 -115 110 -24 7
-41 17 -39 21 3 4 -4 8 -15 8 -12 0 -21 5 -21 10 0 6 -9 10 -20 10 -33 0 -159
44 -238 82 -13 7 -22 20 -22 33 0 31 -16 42 -80 53 -51 9 -56 8 -78 -13 -27
-28 -43 -32 -176 -45 -54 -6 -102 -13 -107 -15 -5 -3 -18 -1 -29 5 -19 10 -20
20 -20 165 0 84 4 165 9 178 12 32 29 37 133 44 135 9 167 -12 152 -100 -4
-23 -6 -54 -6 -69 1 -32 52 -113 70 -112 7 1 52 2 100 3 81 1 93 4 133 31 52
35 69 27 51 -24 -14 -39 -18 -92 -8 -122 6 -19 105 -74 134 -74 7 0 21 -5 32
-12 10 -7 23 -9 27 -4 4 4 9 67 11 139 2 73 8 144 13 159 8 19 8 42 0 79 -9
41 -9 57 3 79 13 27 12 29 -13 40 -14 6 -51 10 -80 9 -61 -3 -81 13 -81 63 0
16 -15 49 -35 76 -28 40 -42 50 -80 59 -35 8 -49 7 -62 -3 -40 -30 -160 -8
-182 34 -16 31 -14 47 14 87 19 29 24 48 23 92 -2 61 -14 76 -83 94 -54 14
-85 36 -85 59 0 11 -13 35 -30 53 -36 41 -37 58 -9 104 20 32 21 39 9 89 -15
60 -9 72 53 116 26 19 27 19 34 1 9 -28 45 -63 62 -63 9 0 25 16 35 35 26 47
107 75 198 68 67 -5 118 -20 118 -34 0 -5 13 -9 30 -9 36 0 49 -22 43 -72 -6
-38 -6 -38 50 -63 56 -24 87 -61 87 -103 0 -24 19 -42 46 -42 12 0 36 -13 54
-30 18 -16 40 -30 50 -30 9 0 25 -9 35 -20 14 -16 15 -24 6 -51 -9 -26 -8 -36
3 -48 24 -27 27 -80 13 -227 -17 -171 -23 -184 -80 -184 -36 0 -49 -6 -80 -38
-36 -36 -36 -38 -16 -50 12 -8 47 -12 90 -10 74 2 89 -5 89 -48 0 -45 -23 -59
-100 -60 -48 0 -74 -5 -80 -14 -8 -13 5 -65 23 -87 13 -18 98 -16 124 2 14 10
24 12 28 5 3 -5 26 -19 51 -31 25 -11 44 -25 41 -32 -4 -14 -69 -25 -157 -26
-36 -1 -71 -5 -79 -10 -9 -6 -14 -28 -14 -67 0 -86 14 -94 163 -94 85 0 119 3
122 13 3 6 1 57 -3 112 -4 54 -6 102 -4 105 2 3 9 44 15 90 13 103 37 173 102
305 61 123 137 227 237 323 95 90 239 201 309 238 l54 27 -7 46 c-4 25 -10 50
-15 55 -24 25 -66 -32 -78 -106 -4 -24 -14 -43 -22 -45 -13 -4 -13 -3 0 6 10
7 11 11 3 11 -7 0 -13 7 -13 15 0 9 -7 29 -15 45 -19 38 -19 72 0 149 21 84
11 106 -51 116 -25 3 -53 15 -64 27 -10 11 -29 22 -42 23 -154 19 -143 19
-165 -9 -12 -14 -29 -26 -40 -26 -31 0 -43 -21 -44 -79 0 -75 -18 -126 -44
-126 -16 0 -23 14 -40 80 -23 93 -30 105 -55 105 -30 0 -50 -38 -44 -84 14
-106 9 -126 -26 -126 -21 0 -70 58 -96 113 -17 36 -17 37 6 62 l23 24 -19 53
c-28 77 -49 72 -79 -17 -13 -38 -24 -78 -25 -87 0 -24 -44 -18 -48 6 -5 26
-39 56 -62 56 -11 0 -20 -3 -20 -8 0 -4 -8 -12 -19 -19 -15 -10 -26 -6 -67 24
-45 32 -53 34 -94 27 -25 -4 -106 -8 -180 -8 -74 -1 -141 -5 -147 -9 -7 -5
-13 -5 -13 0 0 40 524 393 583 393 10 0 25 -4 35 -9 9 -5 25 -12 35 -15 24 -7
21 -33 -4 -47 -12 -6 -19 -7 -15 -1 4 6 -2 8 -14 5 -11 -3 -20 -9 -20 -14 0
-23 -57 -44 -134 -49 -73 -4 -81 -7 -84 -26 -3 -19 3 -22 75 -29 111 -11 373
-9 386 4 6 6 6 24 -3 53 -7 24 -14 84 -14 135 -1 50 -4 95 -9 99 -4 4 -22 2
-40 -4 -26 -9 -582 -12 -2348 -12 l-2314 0 -2 -128 c-1 -70 -3 -145 -4 -167
l-2 -40 -7 45 c-6 37 -7 30 -8 -40 0 -56 2 -78 8 -65 13 31 14 19 14 -372 1
-284 -2 -363 -11 -363 -10 0 -13 -85 -15 -387 -1 -214 -4 -322 -5 -240 l-4
147 -119 0 -120 0 0 -1580 0 -1580 118 0 c148 -1 158 -7 166 -100 3 -36 5
-149 5 -252 l1 -188 1398 0 1397 0 41 -78 c23 -42 65 -117 93 -166 29 -49 50
-90 48 -93 -3 -2 -668 -6 -1478 -8 -811 -2 -1480 -5 -1486 -5 -10 0 -13 -152
-13 -725 l0 -725 2208 0 c1215 0 2445 -3 2733 -7 l524 -6 -3 -83 c-3 -73 -1
-83 15 -87 12 -3 7 -5 -12 -7 -28 -2 -28 -3 10 -11 22 -5 57 -12 78 -15 42 -8
39 -18 37 119 l-1 88 28 -3 28 -3 2 -107 c0 -60 -2 -108 -7 -108 -5 0 -7 -8
-5 -17 2 -10 4 -116 4 -235 l1 -218 25 0 25 0 0 231 c0 207 2 230 16 225 9 -3
21 -6 27 -6 9 0 10 -26 6 -97 -4 -54 -7 -155 -8 -225 l-1 -128 55 0 55 0 0 60
c0 47 3 60 15 60 11 0 15 11 15 40 0 22 -4 40 -10 40 -6 0 -10 33 -10 80 0 73
-2 80 -20 80 -17 0 -20 7 -20 40 l0 40 45 0 c25 0 45 -4 45 -10 0 -5 18 -15
40 -21 46 -14 51 -24 15 -33 -22 -6 -25 -12 -25 -51 0 -38 -3 -45 -20 -45 -19
0 -20 -7 -20 -120 0 -113 1 -120 20 -120 13 0 20 -7 20 -20 0 -19 7 -20 170
-20 163 0 170 1 170 20 0 11 -5 20 -12 20 -9 0 -9 3 -1 11 17 17 31 3 25 -26
l-4 -25 361 0 361 0 2 103 c1 56 1 155 -1 219 -3 110 -2 118 15 119 12 0 8 4
-11 10 -65 19 -379 9 -401 -13 -3 -4 -13 -126 -14 -180 0 -5 -18 -8 -40 -8
-29 0 -40 4 -40 15 0 11 -12 15 -50 15 -49 0 -49 0 -56 38 -4 20 -10 39 -14
42 -4 3 -10 21 -14 41 l-6 36 102 8 c208 15 208 22 1 24 -120 0 -203 5 -203
10 0 6 -19 12 -42 14 l-43 4 45 1 c25 1 40 6 33 10 -7 4 -13 41 -15 92 l-3 85
175 3 c96 2 199 0 228 -3 l52 -6 0 -80 c0 -68 -2 -79 -17 -80 -13 0 -14 -2 -4
-6 10 -4 8 -9 -10 -19 -23 -13 -23 -13 16 -14 22 0 74 7 115 15 41 9 92 18
113 22 40 6 51 31 17 40 -11 3 -20 9 -20 14 0 5 11 7 25 3 15 -4 25 -2 25 5 0
6 -6 11 -12 11 -9 0 -12 15 -10 50 l4 50 99 0 99 0 0 -64 0 -65 33 11 c17 5
39 11 47 12 9 1 20 5 25 8 13 7 102 34 140 43 29 6 29 6 10 -10 -11 -9 -14
-14 -7 -10 7 3 20 4 30 1 14 -5 17 -14 14 -48 -3 -24 -9 -46 -16 -50 -7 -5
-12 -88 -15 -263 l-3 -255 251 0 251 0 0 420 c0 329 3 420 13 420 9 0 9 2 -1
8 -9 6 -4 14 18 30 16 12 32 22 34 22 10 0 111 63 127 79 8 9 47 36 85 61 38
24 71 47 74 50 3 4 28 21 55 40 28 19 52 36 55 40 3 3 18 14 35 24 16 11 34
23 40 28 5 4 34 26 63 48 l52 41 -42 39 c-24 22 -53 49 -65 61 -17 15 -26 18
-41 10 -14 -7 -19 -7 -19 4 0 7 6 11 12 9 18 -7 39 22 24 32 -8 4 -9 3 -5 -4
5 -8 0 -12 -13 -12 -11 0 -25 -8 -30 -18 -6 -9 -11 -14 -11 -9 0 4 -11 0 -25
-9 -14 -9 -32 -13 -41 -10 -8 3 -29 -1 -45 -10 -27 -14 -35 -14 -87 1 -31 9
-94 33 -139 53 -90 40 -103 58 -103 133 0 22 -3 39 -6 39 -19 0 -44 -25 -54
-55 -13 -39 -7 -55 19 -55 29 0 43 -21 24 -36 -15 -10 -15 -14 -3 -29 8 -9 19
-27 25 -38 8 -17 18 -21 50 -19 34 2 47 -3 89 -38 54 -45 55 -45 82 -25 20 15
64 20 64 7 0 -5 -21 -20 -47 -34 -27 -14 -106 -58 -178 -97 -141 -78 -125 -75
-265 -51 -36 6 -76 18 -89 27 -22 14 -199 61 -366 98 -115 25 -145 35 -145 51
0 8 10 18 23 23 12 5 33 14 47 20 l25 12 -25 -6 c-190 -40 -268 -61 -285 -75
-11 -10 -29 -20 -39 -22 -26 -4 -31 -24 -9 -33 44 -17 245 -64 438 -101 44 -9
112 -24 150 -34 39 -9 105 -26 147 -35 43 -10 75 -21 73 -26 -6 -9 -184 -78
-309 -120 -197 -65 -470 -123 -736 -155 -193 -24 -625 -24 -825 0 -175 20
-366 56 -360 66 3 5 24 11 48 15 76 12 217 47 217 53 0 4 -39 43 -87 88 -90
84 -98 104 -40 104 18 0 124 16 237 35 113 20 257 43 320 51 63 9 123 20 132
25 9 4 58 13 108 20 50 6 106 17 123 24 18 7 58 16 90 20 49 6 55 9 40 20 -15
12 -15 13 5 19 12 4 22 12 22 17 0 5 8 9 18 9 9 0 42 16 73 36 56 35 57 36 43
64 -13 26 -18 28 -56 22 -29 -3 -39 -2 -34 6 4 7 1 12 -9 12 -9 0 -13 -5 -9
-11 4 -8 1 -8 -12 -1 -11 5 -34 8 -52 7 -26 -3 -32 0 -28 12 3 8 6 23 6 32 0
12 14 22 40 31 36 12 40 17 40 47 0 39 -12 42 -42 8 -12 -14 -25 -25 -30 -25
-10 0 -11 47 0 53 4 2 2 2 -5 1 -6 -2 -24 7 -38 18 l-27 21 23 13 c31 17 39
17 39 -1 0 -11 11 -15 40 -15 36 0 40 3 40 25 0 16 6 25 15 25 11 0 15 -11 15
-39 0 -22 -4 -41 -9 -43 -12 -4 5 -48 19 -48 15 0 30 45 30 91 0 36 7 45 34
40 5 -1 12 2 15 6 3 5 37 16 76 26 38 10 81 25 95 32 l25 14 -28 1 c-15 0 -69
-9 -120 -19 -318 -66 -732 -78 -1030 -30 -66 11 -68 12 -65 37 l3 27 265 -3
c146 -1 292 2 325 7 51 8 40 9 -70 6 -141 -4 -473 11 -517 23 -15 4 156 7 380
7 431 1 503 6 712 51 156 34 220 53 220 66 0 6 -11 7 -27 3 -147 -38 -409 -76
-508 -74 -52 2 -47 3 35 10 87 7 145 17 255 39 25 6 -5 7 -80 3 -276 -13 -292
-11 -302 27 -3 11 -12 20 -20 20 -11 0 -14 6 -9 23 3 12 6 39 6 61 0 29 3 37
14 33 8 -3 30 10 51 30 35 34 37 39 31 79 -6 49 0 74 19 74 17 0 34 22 38 48
2 12 11 30 20 40 9 10 17 26 17 35 0 9 5 19 10 22 6 3 10 16 10 29 0 12 3 26
6 29 4 4 9 28 11 54 2 26 11 61 19 77 7 16 14 44 14 63 0 18 4 32 9 30 6 -1
23 7 39 17 26 17 29 24 26 60 -3 33 -2 36 5 16 l9 -25 3 25 c1 14 1 33 0 44 0
10 4 25 10 32 6 7 9 17 6 21 -3 4 0 19 6 33 6 14 12 45 13 70 3 70 23 190 36
213 6 11 12 43 14 71 1 28 5 92 8 141 8 119 -15 272 -45 299 -9 8 -10 8 -4 -3
12 -20 24 -82 15 -76 -4 2 -10 18 -13 34 -3 16 -13 36 -22 45 -9 9 -14 16 -11
16 10 0 -52 115 -83 154 -38 47 -42 39 -5 -10 15 -19 24 -37 21 -40 -2 -3 -25
21 -50 53 -39 52 -77 88 -142 139 -19 14 -19 15 4 4 13 -7 44 -27 68 -46 25
-19 50 -34 56 -34 6 0 20 -8 32 -17 12 -10 -12 14 -52 54 -51 48 -99 84 -151
110 -73 36 -83 38 -185 41 -88 3 -120 0 -177 -17 -38 -12 -72 -26 -76 -33 -5
-7 -2 -9 9 -5 71 27 305 49 292 27 -5 -9 13 -13 50 -13 6 0 16 -6 23 -13 7 -8
11 -14 10 -14 -2 0 -35 7 -73 15 -39 8 -95 15 -126 15 -78 0 -217 -42 -191
-59 6 -3 -20 -31 -58 -63 -72 -61 -148 -165 -174 -238 -91 -262 8 -556 225
-664 97 -49 187 -63 308 -48 131 17 183 44 290 151 93 93 105 117 136 266 21
103 17 216 -11 289 -5 13 -3 17 6 14 7 -2 15 -11 16 -19 2 -7 10 -39 19 -69 8
-30 15 -60 15 -68 0 -7 6 -19 13 -27 11 -10 11 -26 2 -82 -22 -130 -66 -227
-144 -321 -130 -156 -275 -220 -477 -209 -102 5 -103 5 -187 56 -79 48 -121
81 -101 81 5 0 -5 8 -21 19 -33 19 -112 127 -102 137 3 4 18 -7 32 -22 l26
-29 -22 33 c-13 18 -29 30 -36 28 -33 -13 -93 178 -93 297 0 163 61 307 180
428 77 78 130 114 228 156 44 18 49 22 22 17 -47 -9 -164 -61 -218 -96 -24
-15 -47 -28 -52 -28 -5 0 -14 -9 -20 -21 -10 -17 -14 -18 -28 -7 -12 10 -14
10 -8 1 5 -10 -3 -13 -31 -13 -22 0 -43 -4 -49 -10 -5 -5 -36 -12 -68 -15 -63
-6 -106 -23 -88 -34 7 -4 7 -11 -1 -22 -17 -22 -44 -31 -104 -35 -57 -3 -112
-25 -80 -32 9 -2 17 -7 17 -11 0 -5 27 -25 60 -46 61 -38 71 -57 34 -63 -16
-2 -20 -9 -16 -32 5 -35 -31 -73 -60 -64 -10 3 -18 1 -18 -5 0 -6 5 -11 11
-11 8 0 8 -5 -1 -15 -7 -8 -21 -15 -31 -15 -10 0 -28 -13 -40 -29 -15 -20 -33
-31 -60 -35 -21 -3 -39 -12 -39 -19 0 -6 -5 -4 -11 7 -10 16 -9 106 2 146 3 9
-4 16 -18 18 -23 3 -31 -12 -13 -23 15 -10 12 -35 -4 -29 -8 3 -17 1 -20 -4
-3 -6 -15 -8 -26 -5 -11 3 -17 9 -14 14 3 5 1 9 -5 9 -6 0 -14 15 -19 33 l-9
32 -7 -38 c-6 -33 -9 -37 -23 -26 -13 11 -15 9 -13 -21 5 -62 1 -76 -21 -77
-17 -2 -20 3 -17 35 2 23 8 36 16 34 17 -3 15 25 -2 35 -8 5 -19 19 -25 33
l-10 25 -1 -25 c-1 -36 -20 -4 -20 34 0 42 -10 26 -13 -20 -3 -53 -21 -49 -27
6 -3 29 -10 44 -17 42 -7 -1 -13 7 -13 18 0 11 4 20 8 20 4 0 8 18 7 40 0 22
-3 40 -7 40 -5 0 -8 5 -8 11 0 5 5 7 12 3 8 -5 9 -2 5 10 -4 10 -7 19 -7 21 0
2 -9 1 -20 -2 -16 -4 -20 0 -20 20 0 14 -7 28 -16 31 -9 4 -13 2 -8 -5 4 -8 0
-7 -15 0 -23 13 -27 26 -10 36 5 4 8 12 6 18 -2 7 0 20 4 29 7 12 4 18 -12 23
-23 8 -33 30 -43 98 -7 46 -9 48 -25 33 -10 -9 -22 -16 -28 -16 -27 0 -19 38
24 125 10 20 11 31 4 33 -16 5 102 146 172 204 l61 51 -189 -3 c-229 -4 -330
-2 -323 6 4 3 120 5 260 5 l254 -1 53 34 c111 72 295 156 393 180 99 24 139
24 159 0 6 -8 23 -14 38 -15 14 0 35 -4 46 -9 l20 -9 -20 -1 c-14 -2 -11 -4 9
-9 44 -9 43 -28 -1 -24 -63 6 -157 25 -170 36 -7 5 -14 6 -14 1 -1 -5 -2 -14
-3 -21 -2 -17 -82 -100 -117 -120 -33 -20 -39 -38 -9 -30 11 3 17 1 14 -4 -3
-6 6 -26 21 -45 21 -28 33 -35 52 -31 18 3 23 1 19 -9 -3 -9 2 -14 13 -14 10
0 24 -7 31 -15 7 -9 20 -13 27 -11 8 3 27 0 42 -8 22 -12 49 -13 140 -5 63 5
139 16 170 25 31 8 70 19 86 24 17 5 80 20 140 35 61 14 118 30 127 35 10 6
26 10 37 10 26 0 184 53 264 89 38 17 79 31 90 32 12 0 40 6 62 13 37 12 33
12 -52 8 -64 -3 -93 -1 -93 6 0 6 15 16 33 21 l32 9 -30 1 c-51 2 -6 20 80 32
43 6 88 14 101 19 15 6 26 6 29 -1 4 -5 14 -7 24 -4 27 8 160 -29 252 -72 210
-95 382 -223 476 -356 16 -23 34 -37 48 -37 22 0 85 -60 85 -80 0 -6 5 -8 10
-5 6 3 10 16 10 29 0 12 11 33 25 46 19 18 35 23 77 23 89 -1 94 -2 133 -29
37 -25 42 -25 144 -20 58 3 217 5 354 6 232 0 248 1 267 20 15 15 21 17 27 6
5 -9 34 -15 84 -17 73 -4 77 -6 113 -43 20 -22 35 -44 33 -49 -1 -5 -15 7 -30
27 -28 36 -29 36 -103 36 -55 0 -80 -4 -91 -15 -13 -14 -18 -14 -38 -1 -26 17
-159 22 -492 19 l-222 -3 30 -32 c149 -160 226 -444 199 -741 -11 -123 -18
-178 -27 -209 -4 -16 6 -18 109 -18 62 0 176 5 253 10 77 5 172 12 210 15 39
2 205 9 370 15 440 14 536 21 542 36 2 7 18 17 34 23 20 7 27 15 23 25 -5 12
0 16 20 16 30 0 32 -7 11 -56 -13 -31 -17 -34 -35 -24 -27 15 -26 -4 3 -23 13
-10 18 -19 12 -24 -5 -4 -10 -14 -11 -20 -2 -29 -5 -33 -25 -33 -13 0 -18 -4
-13 -12 5 -8 2 -9 -12 -4 -10 4 -32 10 -49 13 l-30 6 26 -21 c15 -12 39 -26
53 -32 34 -12 26 -29 -11 -24 -24 3 -25 3 -5 -4 13 -4 23 -11 23 -15 1 -4 -12
-41 -27 -83 -23 -64 -32 -77 -59 -88 -31 -13 -32 -15 -27 -64 4 -45 -1 -61
-48 -156 -64 -130 -194 -348 -258 -432 -46 -61 -48 -63 -94 -64 -25 0 -53 -3
-62 -6 -27 -10 -7 -24 35 -24 22 0 39 -5 39 -11 0 -6 -6 -9 -13 -6 -8 3 -20 1
-28 -4 -11 -7 -11 -9 4 -9 28 0 20 -22 -28 -77 -43 -49 -47 -51 -78 -42 -41
12 -56 11 -37 -1 8 -5 25 -10 38 -10 28 0 28 -11 -2 -39 -24 -23 -26 -23 -133
-11 -143 15 -183 21 -183 29 0 4 23 17 51 30 45 19 54 20 73 8 24 -16 136 -22
136 -7 0 6 -8 10 -18 10 -18 0 -65 29 -48 30 5 0 26 -5 47 -11 20 -7 46 -8 56
-4 14 6 8 10 -27 19 -62 15 -64 38 -5 66 25 12 52 19 60 16 10 -4 15 1 15 15
0 29 -30 21 -159 -44 -58 -29 -111 -51 -118 -49 -7 2 -12 -1 -11 -6 3 -11
-119 -132 -132 -132 -17 0 -11 -28 8 -34 27 -8 139 -24 225 -32 77 -6 79 -7
128 -55 28 -27 55 -49 60 -49 5 0 33 -18 62 -39 29 -22 83 -56 120 -76 72 -40
217 -89 217 -75 0 5 8 11 18 13 16 4 16 5 0 6 -10 0 -18 5 -18 10 0 5 -8 12
-17 14 -17 4 -17 5 0 6 10 1 17 9 17 21 0 11 5 20 11 20 5 0 7 5 3 11 -3 6 -6
50 -5 98 l2 86 -56 42 c-49 39 -55 47 -55 80 0 21 -3 47 -6 58 -3 14 4 30 22
50 24 26 25 30 10 40 -22 17 -20 28 4 20 18 -6 20 -3 17 20 -2 15 -9 30 -16
34 -9 6 -8 11 4 21 8 7 15 18 15 24 0 6 20 52 44 101 81 166 156 327 156 338
0 6 3 8 6 5 3 -3 -1 -29 -10 -57 -8 -28 -12 -51 -8 -51 4 0 6 -75 4 -166 -4
-131 -2 -168 9 -175 10 -6 7 -14 -14 -35 -31 -31 -37 -93 -12 -114 8 -7 15
-23 15 -35 0 -13 6 -26 13 -28 10 -4 10 -6 0 -6 -17 -1 -18 -98 -2 -103 18 -6
18 -228 0 -228 -10 0 -11 -3 -2 -14 10 -12 3 -15 -39 -21 -50 -7 -61 -17 -37
-32 8 -5 0 -10 -23 -14 l-35 -6 33 -2 c25 -1 32 -5 32 -21 0 -11 -5 -20 -12
-20 -21 0 0 -12 39 -21 21 -5 88 -9 148 -10 254 -2 479 92 665 280 131 132
214 279 262 463 28 109 30 328 5 433 -25 101 -65 201 -109 273 -21 34 -38 65
-38 68 0 3 -6 12 -12 19 -7 8 -40 45 -73 82 -141 161 -258 232 -471 287 -120
30 -123 32 -119 56 3 14 8 47 11 74 8 59 29 82 120 127 35 18 64 36 64 40 0 3
8 9 18 12 9 3 29 14 44 23 21 14 32 16 50 7 13 -6 64 -25 113 -43 141 -51 220
-99 359 -220 16 -14 36 -32 44 -42 8 -9 22 -14 30 -10 9 3 13 1 9 -5 -4 -6 4
-18 18 -27 14 -9 25 -12 25 -6 0 5 -4 10 -9 10 -5 0 -11 8 -13 18 -5 23 12 92
23 92 5 0 9 18 9 40 0 38 2 40 30 40 28 0 30 -2 30 -40 0 -22 5 -49 10 -60 6
-11 15 -29 20 -40 6 -11 10 -56 10 -100 0 -54 4 -80 12 -80 6 0 9 -3 6 -6 -4
-3 -16 -1 -27 6 -24 12 -28 -1 -6 -20 8 -6 17 -22 21 -33 3 -12 16 -35 28 -52
12 -16 28 -45 35 -62 16 -39 24 -41 38 -10 12 27 5 329 -8 337 -4 3 -1 20 8
39 14 28 14 34 2 42 -10 6 -11 9 -1 9 20 0 -2 33 -68 101 -49 49 -64 59 -82
54 -17 -5 -19 -4 -9 4 13 8 11 13 -10 29 -25 21 -42 21 -21 0 16 -16 15 -25
-4 -32 -14 -5 -15 0 -12 34 3 34 1 40 -15 40 -10 0 -16 4 -13 9 7 11 -143 118
-212 151 -28 14 -51 30 -52 36 0 6 -15 18 -32 25 -18 7 -40 22 -50 34 -15 19
-15 20 5 29 22 9 21 9 -5 19 -16 6 -28 17 -28 24 0 7 -6 13 -14 13 -8 0 -17 7
-20 16 -10 25 -7 444 3 444 5 0 11 20 13 45 2 36 0 46 -17 54 -20 10 -20 10 0
10 16 1 17 3 5 11 -13 8 -13 10 0 15 8 3 204 4 435 3 l420 -3 3 -183 c1 -110
-2 -190 -8 -201 -7 -14 -6 -21 3 -25 9 -5 9 -7 0 -12 -23 -10 -14 -24 15 -24
15 0 71 11 123 25 147 39 357 82 434 89 78 8 154 24 172 38 7 6 18 6 25 2 9
-6 9 -3 -1 10 -10 12 -16 14 -22 5 -4 -6 -6 3 -5 21 1 20 8 35 16 38 13 3 13
2 0 -7 -8 -5 -12 -12 -9 -16 3 -3 13 3 22 12 16 19 27 169 13 192 -4 6 0 11
11 12 16 0 16 1 -1 8 -41 16 17 21 237 21 l222 0 -3 1132 c-2 623 0 1210 3
1305 l7 171 27 8 c20 5 22 8 8 11 -24 6 -11 23 19 23 13 0 24 4 24 8 0 15 44
29 65 21 28 -11 95 -11 95 0 0 5 9 13 20 16 20 6 20 15 20 546 l0 539 -1500 0
c-1327 0 -1500 -2 -1500 -15z m667 -391 c-3 -3 -12 -4 -19 -1 -8 3 -5 6 6 6
11 1 17 -2 13 -5z m1856 -91 c-7 -2 -21 -2 -30 0 -10 3 -4 5 12 5 17 0 24 -2
18 -5z m157 -39 c0 -13 -4 -24 -10 -24 -5 0 -10 14 -10 31 0 17 4 28 10 24 6
-3 10 -17 10 -31z m30 -15 c0 -5 -4 -9 -10 -9 -5 0 -10 7 -10 16 0 8 5 12 10
9 6 -3 10 -10 10 -16z m-346 -20 c73 -87 -29 -198 -118 -128 -21 16 -26 29
-26 63 0 58 29 82 112 95 3 1 18 -13 32 -30z m-240 9 c25 -11 28 -16 40 -70 9
-39 -40 -88 -88 -88 -64 0 -110 69 -79 118 33 53 72 66 127 40z m305 -43 c0
-5 -4 -3 -9 5 -5 8 -9 22 -9 30 0 16 17 -16 18 -35z m34 30 c-3 -9 -8 -14 -10
-11 -3 3 -2 9 2 15 9 16 15 13 8 -4z m157 3 c0 27 30 -16 31 -45 2 -26 2 -25
9 7 9 46 18 23 23 -55 3 -60 3 -59 5 13 1 49 6 71 13 67 15 -10 9 -176 -7
-192 -9 -10 -52 -12 -156 -11 -131 2 -136 2 -58 8 l85 6 -125 4 c-69 1 -111 5
-95 7 17 2 39 8 50 13 11 5 54 11 95 13 75 3 75 3 -17 5 -51 1 -95 7 -98 12
-4 7 2 9 19 4 18 -4 26 -2 26 7 0 10 3 10 12 1 21 -21 31 -13 14 13 -9 14 -12
25 -6 25 6 0 15 -10 21 -22 8 -18 20 -24 54 -26 25 -1 54 2 66 8 28 16 62 96
49 118 -8 14 -9 14 -10 2 0 -13 -1 -13 -10 0 -5 8 -10 20 -10 25 0 6 5 3 10
-5 7 -11 10 -12 10 -2z m-693 -90 c-3 -8 -6 -5 -6 6 -1 11 2 17 5 13 3 -3 4
-12 1 -19z m-4 -65 c-29 -2 -78 -2 -110 0 -32 2 -8 3 52 3 61 0 87 -1 58 -3z
m62 -32 c27 -6 -29 -9 -175 -8 -118 0 -197 3 -175 6 66 10 307 11 350 2z
m-10557 -193 c19 -19 14 -55 -10 -72 -20 -14 -81 -16 -468 -16 -387 0 -448 2
-468 16 -24 17 -29 53 -10 72 17 17 939 17 956 0z m7158 -114 c46 -31 87 -61
90 -65 14 -24 24 -3 24 51 0 47 3 60 15 60 12 0 15 -15 15 -77 0 -76 1 -79 32
-103 61 -48 83 -69 71 -70 -7 0 -13 4 -13 8 0 12 -46 32 -54 25 -3 -4 -6 -22
-6 -41 0 -34 1 -34 34 -29 29 5 35 2 45 -19 6 -14 8 -42 5 -63 -6 -37 -4 -40
39 -70 25 -17 48 -31 50 -31 3 0 11 15 18 33 12 29 35 56 49 57 3 0 62 -56
130 -125 l125 -125 330 -1 c181 0 337 -3 345 -7 17 -8 19 -20 7 -39 -6 -9 -35
-13 -95 -12 l-87 2 82 11 c88 12 119 23 47 17 -27 -2 -44 1 -44 8 0 6 -18 11
-40 11 -22 0 -40 -4 -40 -10 0 -5 -18 -13 -40 -16 -22 -4 -40 -10 -40 -15 0
-5 -18 -9 -40 -9 -22 0 -40 5 -40 10 0 6 18 10 40 10 29 0 40 4 40 15 0 12
-16 15 -80 15 -47 0 -80 -4 -80 -10 0 -6 -32 -10 -76 -10 -54 0 -73 3 -68 12
4 7 3 8 -4 4 -32 -20 -7 -27 78 -25 49 2 92 0 96 -4 11 -11 36 -8 29 3 -3 6
-1 10 5 10 7 0 10 -6 7 -12 -6 -20 -264 -21 -293 -2 -20 14 -22 13 -32 -27
-11 -45 -8 -62 20 -98 27 -36 24 -106 -6 -142 -28 -33 -25 -62 12 -104 29 -33
42 -67 42 -110 0 -23 6 -38 18 -44 17 -9 19 -5 19 35 0 47 14 66 43 61 12 -2
15 -29 17 -157 2 -85 7 -193 12 -240 5 -47 6 -112 1 -145 -14 -103 -6 -214 18
-267 12 -26 22 -52 22 -59 0 -23 44 -149 52 -149 13 0 9 64 -7 110 -17 49 -19
79 -5 100 7 12 14 9 39 -15 24 -24 31 -39 31 -72 0 -41 1 -43 33 -44 17 -1 37
0 42 1 17 4 379 -1 383 -5 7 -6 62 -219 62 -239 0 -12 -5 -16 -15 -12 -8 3
-15 1 -15 -4 0 -6 -17 -10 -37 -11 -21 0 -47 -4 -58 -9 -14 -6 3 -9 53 -8 40
0 77 -3 83 -9 11 -11 39 -150 39 -193 l0 -28 -247 -6 c-536 -13 -525 -13 -535
-30 -12 -21 -42 -20 -74 0 -22 15 -32 15 -80 5 -61 -14 -58 -7 -38 -85 5 -18
1 -25 -18 -31 -57 -18 -88 2 -88 56 0 36 -2 39 -22 35 -13 -3 -41 -8 -63 -11
-47 -8 -65 -21 -65 -46 0 -22 -14 -31 -56 -36 -29 -3 -33 0 -39 27 -5 21 -2
39 9 55 16 24 16 25 -11 26 -17 1 -21 3 -10 6 40 10 5 53 -56 69 -22 5 -32 2
-43 -15 -21 -29 -40 -26 -47 7 -5 22 -17 32 -69 54 -373 158 -372 158 -365
228 3 25 8 58 12 73 5 17 3 38 -5 52 -9 16 -10 41 -6 77 4 29 10 90 14 135 4
45 10 85 14 88 4 4 0 21 -8 37 -22 43 -44 118 -44 152 0 16 -12 44 -26 63 -23
31 -24 36 -11 51 8 9 18 28 22 42 14 48 26 54 51 23 13 -15 23 -33 24 -39 0
-6 8 -18 19 -28 12 -11 16 -25 13 -41 -9 -49 5 -74 46 -81 42 -7 131 -35 150
-47 16 -10 16 -54 0 -63 -7 -5 -54 -11 -105 -14 -51 -3 -95 -9 -99 -13 -4 -3
-8 -82 -9 -174 -1 -92 -6 -188 -10 -213 -10 -66 7 -78 115 -80 114 -2 275 8
304 20 18 7 23 14 19 30 -6 22 23 63 38 54 17 -10 9 -53 -11 -64 -32 -17 -26
-42 8 -34 15 4 30 11 33 16 3 5 28 -1 54 -12 46 -20 48 -20 32 -2 -9 10 -17
24 -17 30 0 7 -4 12 -10 12 -14 0 -37 59 -45 113 -7 54 5 65 52 50 20 -7 29
-17 31 -37 2 -15 10 -30 18 -33 8 -3 14 -13 14 -23 0 -24 31 -35 42 -15 12 21
28 19 28 -5 0 -14 9 -21 35 -26 47 -8 52 -2 21 29 -47 47 -27 117 32 117 35 0
49 -10 60 -40 12 -35 1 -73 -26 -85 -28 -13 -28 -25 1 -25 51 0 65 11 77 58
20 80 31 102 51 102 26 0 31 -14 30 -80 0 -48 2 -58 14 -54 8 4 15 10 15 15 0
16 29 10 50 -11 11 -11 20 -27 20 -36 0 -9 7 -14 18 -12 12 2 18 15 20 43 4
44 -21 209 -45 295 -8 30 -21 136 -29 235 -16 205 -29 312 -42 329 -5 6 -12
24 -16 40 -4 16 -20 57 -36 92 -22 48 -33 62 -44 58 -9 -3 -16 -12 -16 -20 0
-8 -4 -14 -10 -14 -5 0 -10 4 -10 9 0 4 -11 20 -24 34 -13 14 -27 40 -31 57
-8 35 -11 35 -65 14 -22 -9 -54 -14 -70 -12 -25 4 -31 1 -36 -17 -3 -12 -4
-25 -3 -31 5 -17 -10 -74 -20 -74 -18 0 -22 39 -6 75 20 50 19 71 -5 106 -24
33 -47 198 -32 225 6 11 3 28 -10 52 -10 20 -18 50 -18 68 0 69 -30 112 -70
99 -14 -5 -22 9 -44 78 -14 47 -33 90 -41 97 -8 6 -17 26 -20 44 -4 17 -13 40
-20 50 -13 18 -16 18 -39 2 -36 -23 -44 -77 -17 -112 24 -30 27 -67 9 -81 -7
-6 -27 -15 -45 -21 -27 -9 -34 -7 -49 9 -15 17 -18 49 -22 249 -4 174 -2 230
7 230 7 0 50 -25 97 -56z m3934 -134 l0 -180 -1774 0 c-1173 0 -1777 3 -1781
10 -4 7 587 10 1764 10 l1771 0 0 160 0 160 -1800 0 -1800 0 0 -131 c0 -100
-3 -130 -12 -127 -10 3 -14 43 -16 141 l-3 137 1826 0 1825 0 0 -180z m-171
17 c38 -16 37 -18 -41 -50 l-37 -16 11 25 c8 18 8 31 0 49 -12 27 -14 27 67
-8z m-6906 -77 c30 -23 48 -72 50 -132 1 -33 -5 -51 -25 -78 -24 -32 -108
-261 -108 -296 0 -29 -29 -14 -34 19 -18 106 -23 180 -16 214 8 35 32 63 53
63 14 0 -1 79 -23 122 -15 28 -17 44 -10 62 18 47 70 59 113 26z m-3953 -185
l0 -75 -424 0 -424 0 -4 63 c-2 34 -2 68 0 75 3 9 98 12 428 12 l424 0 0 -75z
m588 -2 l3 -73 -241 0 -240 0 0 75 0 75 238 -2 237 -3 3 -72z m432 2 l0 -75
-160 0 -160 0 0 75 0 75 160 0 160 0 0 -75z m1030 0 l0 -75 -460 0 -460 0 0
75 0 75 460 0 460 0 0 -75z m4863 36 c29 -11 47 -56 47 -117 0 -34 5 -46 21
-55 20 -10 21 -17 15 -72 -3 -33 -11 -66 -17 -74 -7 -7 -9 -16 -5 -20 13 -13
120 -15 173 -4 60 14 87 4 119 -44 20 -31 11 -59 -32 -99 -27 -25 -36 -43 -43
-87 -14 -83 -3 -120 42 -142 33 -15 37 -21 37 -56 0 -46 -20 -66 -61 -63 -16
1 -47 -7 -69 -18 -24 -12 -72 -23 -122 -27 -94 -9 -107 -26 -23 -31 50 -3 55
-5 61 -29 5 -18 2 -30 -10 -38 -9 -7 -16 -17 -16 -23 0 -6 -10 -17 -22 -23
-20 -11 -21 -12 -4 -25 23 -16 38 -82 25 -106 -7 -12 -21 -18 -46 -18 -42 0
-73 23 -73 56 0 13 -4 25 -9 28 -10 6 -26 70 -41 161 -5 28 -21 97 -35 155
-21 82 -33 110 -54 127 -14 12 -31 22 -37 23 -6 0 -17 6 -23 14 -6 8 -31 17
-55 20 -24 4 -51 15 -61 26 -19 21 -21 14 45 129 30 53 41 63 75 72 48 13 55
22 55 76 0 30 7 50 25 72 23 27 26 37 23 104 -2 62 0 79 16 96 21 23 42 26 79
12z m-4537 -177 c-7 -18 -46 -18 -46 0 0 8 10 22 23 31 20 14 22 14 25 0 2 -9
1 -23 -2 -31z m-2376 -89 l0 -75 -425 0 -425 0 0 75 0 75 425 0 425 0 0 -75z
m868 -2 l3 -73 -381 0 -380 0 0 75 0 75 378 -2 377 -3 3 -72z m432 2 l0 -75
-160 0 -160 0 0 75 0 75 160 0 160 0 0 -75z m986 52 c-5 -21 -3 -23 28 -19 19
2 43 -1 55 -7 43 -24 13 -121 -38 -121 -12 0 -39 17 -61 39 l-39 38 -27 -28
-28 -29 -383 0 -383 0 0 68 c0 38 3 72 7 75 3 4 202 7 441 7 l434 0 -6 -23z
m8588 -48 c28 -33 32 -59 14 -92 -29 -55 -102 -65 -143 -21 -34 37 -33 78 4
115 41 41 90 40 125 -2z m-2824 -99 l0 -30 -79 0 c-77 0 -80 1 -101 30 l-21
30 100 0 101 0 0 -30z m54 18 c-5 -8 9 -10 52 -6 32 2 73 1 89 -3 19 -4 -6 -7
-67 -8 -83 -1 -97 1 -92 14 4 8 10 15 16 15 5 0 6 -5 2 -12z m396 2 c25 16 90
12 90 -5 0 -13 -20 -15 -122 -14 l-123 1 60 12 c33 7 65 9 70 5 6 -4 17 -4 25
1z m-310 -40 c0 -5 -18 -10 -40 -10 -22 0 -40 5 -40 10 0 6 18 10 40 10 22 0
40 -4 40 -10z m400 0 c0 -12 -200 -12 -275 0 -36 5 -5 8 113 9 102 1 162 -3
162 -9z m-6119 -39 c23 -23 29 -38 29 -71 0 -22 9 -58 19 -79 16 -31 18 -42 8
-61 -31 -60 -130 -88 -161 -45 -22 30 -50 168 -43 212 12 75 93 99 148 44z
m1187 -171 c16 -66 6 -100 -32 -100 -37 0 -54 32 -48 88 6 55 18 74 46 70 15
-2 23 -16 34 -58z m4378 5 l16 -25 204 0 204 0 0 -35 0 -35 -175 0 c-149 0
-175 -2 -175 -15 0 -12 13 -15 55 -15 l55 0 0 -35 c0 -32 -3 -35 -28 -35 -20
0 -33 7 -42 25 -20 37 -37 30 -45 -16 -10 -60 -33 -109 -50 -109 -25 0 -65
105 -56 149 5 27 -9 60 -29 66 -28 9 -25 39 5 59 14 9 25 23 25 31 0 23 18 18
36 -10z m-9259 -307 c-1 -57 -3 -11 -3 102 0 113 2 159 3 103 2 -57 2 -149 0
-205z m12101 256 c51 -58 11 -149 -66 -149 -105 0 -130 140 -32 178 28 11 75
-3 98 -29z m-8681 -26 c-3 -7 -5 -2 -5 12 0 14 2 19 5 13 2 -7 2 -19 0 -25z
m-2753 -60 c8 -30 8 -92 0 -112 -5 -14 -28 -16 -150 -16 l-144 0 0 75 0 75
144 0 c141 0 144 0 150 -22z m1664 -50 l-3 -73 -777 -3 -778 -2 0 75 0 75 780
0 781 0 -3 -72z m1110 -7 c4 -43 2 -51 -12 -51 -11 0 -14 -5 -10 -12 4 -6 3
-8 -3 -5 -16 10 -26 77 -14 91 6 7 8 23 4 37 -5 23 -5 23 12 7 11 -10 20 -37
23 -67z m3579 10 c10 -5 54 -54 130 -144 26 -31 63 -101 63 -119 0 -7 -8 1
-18 17 -20 32 -43 55 -157 160 -87 79 -97 129 -18 86z m2421 -95 c15 -24 39
-64 52 -90 l25 -46 83 0 83 0 -3 -27 c-3 -27 -6 -28 -65 -31 -35 -2 -63 -4
-63 -6 0 -2 22 -50 49 -107 26 -57 65 -148 86 -201 20 -54 42 -98 49 -99 6 -1
20 -1 31 0 15 1 20 -5 22 -28 2 -25 -1 -29 -19 -26 -19 4 -20 1 -14 -35 l6
-39 -157 -5 c-87 -3 -171 -5 -187 -6 -16 0 -33 3 -37 7 -5 5 -9 61 -10 127 -2
138 -7 161 -34 161 -15 0 -20 7 -20 25 0 20 5 25 23 24 l23 -1 -1 191 c-1 241
-3 222 16 240 23 24 32 20 62 -28z m-3664 0 c-3 -8 0 -17 6 -21 6 -4 11 -1 9
6 -3 28 1 39 16 39 9 0 15 -10 16 -27 1 -28 1 -28 8 -4 10 36 31 38 32 4 1
-15 3 -21 6 -11 6 22 33 32 33 12 0 -9 9 -18 20 -21 39 -10 10 -20 -47 -15
-32 2 -55 2 -52 -2 4 -4 35 -8 70 -9 l64 -3 3 -34 c3 -23 6 -29 12 -20 14 22
39 -6 37 -43 0 -18 4 -42 11 -54 8 -14 9 -24 2 -28 -6 -4 -4 -12 5 -22 12 -12
13 -18 4 -29 -9 -11 -9 -17 0 -28 10 -11 8 -17 -6 -25 -10 -6 -13 -11 -6 -11
11 0 12 -34 4 -152 -1 -11 -9 -18 -23 -18 -21 0 -21 0 -2 -14 14 -11 16 -17 7
-27 -6 -6 -9 -17 -7 -23 5 -14 -20 -68 -28 -60 -3 3 -10 -9 -16 -25 -16 -46
-29 -37 -31 21 -1 76 -11 72 -11 -5 0 -53 -3 -67 -15 -67 -11 0 -15 11 -15 37
0 20 -3 33 -7 29 -8 -8 -9 -13 -12 -73 -1 -23 -6 -33 -17 -33 -11 0 -15 6 -11
18 2 11 1 37 -3 58 -7 37 -8 37 -9 -18 l-1 -57 -32 3 c-42 4 -69 15 -89 38 -9
10 -24 18 -33 18 -10 0 -16 8 -16 24 0 13 -3 31 -6 40 -4 11 0 16 12 17 17 1
17 2 2 6 -11 3 -19 15 -19 31 l-2 27 -4 -27 c-5 -35 -33 -37 -33 -3 0 16 -6
25 -15 25 -8 0 -15 9 -15 20 0 13 7 20 20 20 14 0 18 5 13 17 -4 11 -8 12 -11
5 -2 -7 -13 -12 -24 -12 -16 0 -19 6 -16 30 2 19 -3 35 -12 41 -11 8 -12 12
-2 16 6 2 12 11 12 19 0 8 -6 14 -12 15 -10 0 -10 2 0 6 8 3 12 27 12 68 l0
64 40 -1 c23 0 44 2 47 6 4 3 -14 6 -39 6 l-46 0 14 47 c16 53 22 62 32 46 5
-8 13 -9 22 -3 10 7 11 10 3 10 -16 0 -17 36 -2 46 6 3 15 0 20 -7 9 -15 11
-10 13 31 1 36 31 33 31 -2 -1 -47 14 -31 17 19 3 44 27 75 29 36 0 -14 2 -14
6 -3 9 24 25 40 34 35 4 -3 6 -12 3 -19z m1006 -18 c0 -27 -2 -30 -25 -24 -14
4 -25 2 -25 -4 0 -5 11 -10 25 -10 21 0 25 -5 25 -31 0 -16 4 -28 9 -25 4 3 6
17 3 31 -5 26 -5 26 52 21 66 -6 76 -11 76 -36 0 -11 9 -24 21 -30 12 -7 18
-18 15 -26 -3 -8 -1 -14 5 -14 6 0 9 -10 7 -22 -2 -15 2 -23 12 -23 8 0 15 -9
15 -20 1 -11 3 -25 6 -30 3 -6 6 -25 7 -42 2 -23 -2 -33 -12 -33 -9 0 -16 13
-19 33 -2 17 -5 -32 -5 -109 -2 -171 -8 -204 -33 -204 -11 0 -19 -5 -19 -11 0
-5 5 -7 10 -4 19 12 10 -11 -10 -25 -11 -8 -20 -20 -20 -27 0 -7 -5 -12 -12
-11 -7 2 -17 -7 -23 -19 -12 -27 -25 -30 -26 -5 0 11 -4 7 -11 -10 -11 -31
-28 -37 -28 -10 -1 16 -1 16 -11 0 -10 -19 -39 -25 -39 -9 0 5 -9 7 -20 4 -11
-3 -20 0 -20 6 0 6 -10 10 -22 8 -17 -1 -23 3 -23 17 0 10 -10 23 -23 27 -13
5 -20 13 -17 19 3 5 2 10 -4 10 -7 0 -10 42 -10 116 0 64 -2 119 -5 122 -3 3
-6 -18 -6 -47 0 -45 -3 -52 -17 -49 -11 2 -17 12 -16 23 1 11 -4 23 -11 27
-20 11 -19 218 0 218 8 0 14 5 14 10 0 6 -4 10 -10 10 -12 0 -13 27 -1 32 5 2
11 20 14 42 3 21 10 43 16 49 8 8 11 -13 11 -78 0 -48 3 -86 6 -82 3 3 6 49 6
101 0 102 5 111 51 114 26 2 27 -1 29 -46 1 -47 1 -47 5 -7 3 22 9 45 15 52 7
9 7 13 -1 13 -6 0 -11 9 -11 19 0 25 29 36 37 14 5 -14 8 -13 15 6 11 30 28
17 28 -21z m60 1 c0 11 3 11 15 1 25 -20 17 -29 -25 -28 -41 0 -47 8 -33 43 5
15 8 15 24 -6 11 -14 19 -18 19 -10z m-150 -4 c0 -8 -7 -15 -15 -15 -16 0 -20
12 -8 23 11 12 23 8 23 -8z m-3207 -20 c15 -14 17 -42 17 -211 0 -191 0 -195
-23 -217 -50 -48 -95 -149 -127 -287 -16 -71 -4 -66 -202 -73 -100 -4 -218 -7
-263 -7 -52 0 -88 -5 -99 -13 -39 -29 29 -38 280 -40 l239 -2 3 -48 c4 -55 -8
-74 -46 -79 -25 -3 -27 -7 -30 -50 l-3 -48 43 0 c49 0 68 -13 68 -46 0 -16 5
-21 18 -18 15 5 17 -6 20 -106 3 -89 1 -111 -11 -116 -8 -3 -13 -13 -10 -23 2
-9 -5 -28 -15 -42 -19 -22 -27 -24 -134 -27 -117 -4 -138 -11 -138 -45 0 -29
-22 -97 -32 -97 -4 0 -17 20 -29 45 -12 25 -34 53 -50 62 -16 10 -29 21 -29
26 0 5 -18 26 -40 47 -22 21 -40 41 -40 44 0 3 -30 56 -66 118 -64 108 -83
157 -87 223 -4 56 -30 146 -39 133 -15 -25 -8 28 16 123 13 52 27 102 31 111
7 17 -13 18 -296 20 l-304 3 0 75 0 75 331 3 332 2 23 58 c12 31 42 99 66 151
24 51 43 95 43 97 0 2 -144 4 -320 4 l-320 0 0 69 0 69 31 6 c17 3 181 6 364
6 282 0 334 2 338 15 7 15 31 17 313 24 140 3 163 1 177 -14z m837 -44 c0 -29
-7 -46 -30 -70 -17 -17 -32 -31 -35 -31 -9 0 9 145 18 152 23 14 47 -12 47
-51z m-2158 -8 c2 -16 1 -49 0 -75 l-4 -48 -779 0 -779 0 0 75 0 75 779 0 780
0 3 -27z m9897 -34 c33 -12 61 -52 61 -89 0 -12 -13 -35 -29 -51 -80 -79 -196
19 -131 111 11 16 30 31 43 33 12 2 22 5 23 6 1 0 15 -4 33 -10z m-4859 -84
c0 -8 -4 -15 -9 -15 -5 0 -11 7 -15 15 -3 9 0 15 9 15 8 0 15 -7 15 -15z m464
-74 c3 -5 -1 -14 -8 -20 -16 -13 -32 2 -21 19 8 12 22 13 29 1z m-5984 -86 l0
-75 -540 0 -540 0 0 75 0 75 540 0 540 0 0 -75z m6967 23 c-2 -7 0 -23 4 -35
5 -14 5 -23 -1 -23 -11 0 -12 3 -15 43 -1 15 2 27 7 27 5 0 8 -6 5 -12z m202
-33 c0 -5 -4 -3 -9 5 -5 8 -9 22 -9 30 0 16 17 -16 18 -35z m-1839 15 c0 -11
-6 -20 -12 -20 -10 0 -9 -3 1 -9 10 -6 12 -23 6 -68 -12 -104 -25 -96 -25 15
0 84 3 102 15 102 8 0 15 -9 15 -20z m1571 -7 c-8 -15 -10 -15 -11 -2 0 17 10
32 18 25 2 -3 -1 -13 -7 -23z m101 -8 c3 -14 1 -25 -3 -25 -5 0 -9 11 -9 25 0
14 2 25 4 25 2 0 6 -11 8 -25z m95 3 c-3 -8 -6 -5 -6 6 -1 11 2 17 5 13 3 -3
4 -12 1 -19z m-227 -16 c0 -15 -2 -15 -10 -2 -13 20 -13 33 0 25 6 -3 10 -14
10 -23z m210 14 c0 -8 -4 -17 -8 -20 -4 -2 -8 4 -8 15 0 10 4 19 8 19 4 0 8
-6 8 -14z m252 -128 c-9 -9 -12 -4 -11 23 0 32 1 33 11 11 8 -17 8 -26 0 -34z
m-204 14 c2 -12 -1 -22 -7 -22 -6 0 -13 0 -16 0 -3 0 -5 3 -4 8 1 4 5 6 10 5
12 -4 11 24 -1 30 -6 3 -5 4 2 3 7 -1 14 -12 16 -24z m42 2 c0 -14 -7 -32 -15
-40 -13 -14 -15 -11 -15 25 0 30 4 41 15 41 9 0 15 -10 15 -26z m-238 -51 c-7
-38 -17 -26 -18 23 -1 41 0 43 10 22 7 -13 10 -33 8 -45z m27 25 c-2 -35 -3
-37 -6 -13 -3 17 -9 36 -15 43 -8 9 -6 12 6 12 12 0 16 -9 15 -42z m101 2 c0
-22 -3 -40 -8 -40 -4 0 -6 18 -4 40 2 22 6 40 8 40 2 0 4 -18 4 -40z m127 -27
c-3 -10 -5 -2 -5 17 0 19 2 27 5 18 2 -10 2 -26 0 -35z m449 32 c6 -16 -12
-45 -27 -45 -10 0 -12 44 -2 53 11 11 23 8 29 -8z m2755 0 c55 -29 62 -106 12
-145 -37 -29 -79 -26 -114 9 -39 40 -39 80 2 120 34 35 56 38 100 16z m-6944
-45 c-1 -37 -2 -38 -19 -23 -22 20 -23 33 -3 33 8 0 15 7 15 15 0 8 2 15 4 15
3 0 4 -18 3 -40z m-3597 -50 l0 -75 -355 0 -355 0 0 75 0 75 355 0 355 0 0
-75z m468 -2 l3 -78 -186 0 -185 0 0 80 0 80 183 -2 182 -3 3 -77z m4602 37
c0 -25 -4 -45 -9 -45 -5 0 -8 11 -6 25 1 14 -2 28 -6 31 -15 9 -10 34 6 34 11
0 15 -12 15 -45z m2073 25 c3 -11 1 -18 -4 -14 -5 3 -9 12 -9 20 0 20 7 17 13
-6z m137 5 c0 -8 -7 -15 -15 -15 -8 0 -15 5 -15 11 0 5 5 7 10 4 6 -3 10 -1
10 4 0 6 2 11 5 11 3 0 5 -7 5 -15z m-3640 -16 c0 -5 -7 -9 -15 -9 -8 0 -15 7
-15 15 0 9 6 12 15 9 8 -4 15 -10 15 -15z m3387 -21 c-3 -7 -5 -2 -5 12 0 14
2 19 5 13 2 -7 2 -19 0 -25z m196 -5 c-7 -2 -21 -2 -30 0 -10 3 -4 5 12 5 17
0 24 -2 18 -5z m183 -2 c-17 -7 -17 -8 -2 -23 12 -12 13 -18 3 -21 -6 -3 -2
-6 9 -6 12 -1 24 -7 27 -15 5 -11 0 -13 -21 -6 -50 15 -60 21 -66 42 -7 30 1
38 37 37 24 0 28 -2 13 -8z m-3747 -44 c1 -5 -3 -5 -9 -2 -5 3 -10 16 -9 28 0
21 1 21 9 2 5 -11 9 -24 9 -28z m3441 26 c-1 -28 -61 -59 -86 -45 -19 10 -5
24 41 40 38 13 45 14 45 5z m-3000 -28 c0 -8 -4 -15 -10 -15 -5 0 -10 7 -10
15 0 8 5 15 10 15 6 0 10 -7 10 -15z m-394 -102 c-5 -5 -46 71 -46 84 0 4 12
-12 25 -36 14 -24 23 -46 21 -48z m3540 21 c-3 -9 -6 -22 -6 -30 0 -23 -27
-16 -33 8 -6 23 6 38 32 38 8 0 11 -6 7 -16z m-3723 -25 c6 -23 27 -17 27 7 0
8 5 12 10 9 15 -9 12 -42 -5 -49 -8 -3 -15 -13 -15 -22 0 -22 -25 -11 -26 12
-1 10 -4 29 -8 42 -4 12 -3 22 2 22 5 0 12 -9 15 -21z m-3933 -99 l0 -70 -260
0 -260 0 0 70 0 70 260 0 260 0 0 -70z m10971 -69 c16 -16 29 -39 29 -51 0
-51 -49 -100 -100 -100 -30 0 -80 57 -80 92 0 41 48 88 90 88 22 0 41 -9 61
-29z m-7426 -146 c16 -15 25 -36 25 -55 0 -17 7 -41 15 -54 14 -22 13 -24 -22
-47 -31 -20 -37 -29 -35 -52 4 -31 -17 -37 -25 -7 -3 11 -10 17 -16 13 -6 -4
-8 2 -5 15 4 12 2 25 -3 28 -5 3 -9 -14 -10 -38 -1 -24 -2 -67 -3 -97 -1 -68
-22 -80 -31 -18 -4 24 -5 75 -2 113 3 57 7 69 21 68 11 -1 15 4 12 15 -12 42
-18 93 -12 116 9 34 57 35 91 0z m-589 -50 c9 -14 23 -25 31 -25 11 0 13 -5 7
-17 -4 -10 -10 -84 -12 -165 -3 -119 -7 -148 -18 -148 -8 0 -14 -9 -14 -20 0
-28 -30 -26 -30 3 -1 12 -1 94 0 182 0 88 -4 167 -9 175 -7 9 -6 19 1 27 15
19 26 16 44 -12z m181 -66 c1 -46 0 -139 -3 -206 -5 -96 -9 -123 -20 -123 -12
0 -20 34 -15 63 1 5 -3 6 -9 2 -6 -4 -11 6 -11 22 -1 15 -5 78 -9 138 l-7 110
-1 -134 c-2 -122 -3 -133 -17 -115 -11 14 -14 15 -9 3 7 -22 -15 -36 -27 -18
-5 8 -9 69 -9 137 0 115 1 122 20 122 12 0 20 -7 21 -17 0 -10 7 -1 16 19 16
39 35 44 28 7 -3 -13 0 -19 8 -16 7 2 11 19 10 38 -3 43 4 62 20 56 8 -2 13
-31 14 -88z m-810 -25 c14 -113 16 -191 3 -199 -5 -3 -10 -31 -10 -61 0 -51
-2 -54 -24 -54 -17 0 -25 6 -25 18 -1 196 1 295 9 322 5 18 7 37 4 41 -8 13 6
31 19 26 7 -2 17 -44 24 -93z m1011 -56 c2 -139 1 -148 -18 -158 -17 -9 -20
-8 -21 12 -2 39 -2 100 0 201 1 88 3 98 19 95 15 -3 17 -19 20 -150z m-848
-58 c0 -197 0 -200 -21 -200 -16 0 -20 5 -16 20 3 11 1 23 -4 26 -10 6 -12
222 -3 302 6 42 10 52 25 52 18 0 19 -12 19 -200z m916 62 c7 -100 7 -102 -15
-102 -21 0 -22 2 -17 103 3 56 6 106 6 112 0 5 4 5 10 -1 5 -5 13 -56 16 -112z
m-196 56 c0 -4 -9 -8 -20 -8 -20 0 -28 29 -13 44 7 7 33 -21 33 -36z m-550
-113 l0 -145 -25 0 -25 0 0 138 c0 76 3 142 7 145 3 4 15 7 25 7 17 0 18 -11
18 -145z m82 0 l2 -140 -32 -1 -32 -1 0 144 0 144 30 -3 30 -3 2 -140z m76 3
l-3 -143 -27 -3 -28 -3 0 145 0 146 30 0 31 0 -3 -142z m80 0 c2 -87 -1 -138
-7 -138 -6 0 -12 51 -14 128 l-3 127 -2 -132 c-2 -111 -5 -133 -17 -133 -13 0
-15 20 -15 123 0 67 -3 132 -6 145 -6 22 -4 23 27 20 l34 -3 3 -137z m-486
-20 c-2 -84 -7 -157 -12 -162 -21 -21 -34 43 -35 167 0 103 3 129 15 137 33
21 35 11 32 -142z m171 145 c3 -5 8 -68 12 -140 5 -94 4 -133 -4 -133 -7 0
-12 45 -13 133 l-2 132 -3 -130 c-2 -71 -8 -134 -12 -138 -5 -5 -18 -6 -30 -2
-20 6 -21 13 -21 139 0 73 3 136 7 139 9 9 61 9 66 0z m687 -98 c0 -86 -2 -95
-19 -95 -14 0 -20 10 -25 46 -9 70 -8 126 4 119 6 -3 10 1 10 9 0 9 7 16 15
16 12 0 15 -17 15 -95z m-3730 -10 l0 -75 -145 0 -145 0 0 75 0 75 145 0 145
0 0 -75z m1400 0 l0 -75 -645 0 -645 0 0 75 0 75 645 0 645 0 0 -75z m2260
-40 c0 -87 -3 -105 -15 -105 -12 0 -15 18 -15 105 0 87 3 105 15 105 12 0 15
-18 15 -105z m-773 -78 c-2 -23 -3 -1 -3 48 0 50 1 68 3 42 2 -26 2 -67 0 -90z
m1177 78 c35 6 52 3 71 -9 24 -16 26 -22 23 -84 l-3 -67 -75 -8 c-69 -7 -76
-6 -92 14 -22 25 -23 65 -4 110 7 19 11 41 8 49 -4 13 -3 13 11 2 11 -9 30
-11 61 -7z m3424 -12 c-10 -2 -28 -2 -40 0 -13 2 -5 4 17 4 22 1 32 -1 23 -4z
m-7488 -188 l0 -75 -145 0 -145 0 0 75 0 75 145 0 145 0 0 -75z m1198 3 c-3
-62 -6 -73 -20 -72 -10 1 -254 2 -543 3 l-525 1 0 70 0 70 545 0 546 0 -3 -72z
m4879 36 c-3 -3 -12 -4 -19 -1 -8 3 -5 6 6 6 11 1 17 -2 13 -5z m2041 -6 c17
-17 15 -26 -13 -44 -24 -16 -27 -15 -45 1 -15 13 -17 22 -9 36 11 21 49 25 67
7z m-418 -32 c6 -8 27 -20 46 -26 19 -6 34 -16 34 -21 0 -18 -47 -9 -80 16
-26 19 -47 25 -94 27 l-61 1 60 7 c33 4 65 7 71 8 6 1 17 -5 24 -12z m-3604
-29 c29 -25 36 -70 14 -90 -9 -9 -15 -8 -24 7 -6 10 -21 31 -33 46 -45 55 -12
84 43 37z m3852 6 c-3 -19 -39 -29 -65 -19 -25 10 4 36 39 36 23 0 29 -4 26
-17z m307 7 c3 -5 30 -10 60 -10 73 0 79 -17 8 -25 -32 -3 -68 -11 -81 -18
-32 -15 -59 11 -43 42 12 22 45 28 56 11z m724 -12 l286 -2 -285 -7 c-157 -3
-295 -10 -307 -14 -13 -4 -31 -4 -40 1 -27 11 -28 11 -95 15 l-63 3 80 6 c44
4 93 5 109 3 16 -1 157 -4 315 -5z m-3269 -8 l-45 -7 60 -4 c33 -2 86 -2 118
0 31 1 57 -2 57 -7 0 -23 -694 -24 -731 -2 -6 4 -8 13 -5 19 5 8 94 11 299 9
161 0 272 -4 247 -8z m-4742 -197 l3 -73 -516 0 -515 0 0 68 c0 38 3 72 7 75
3 4 234 6 512 5 l506 -3 3 -72z m807 25 c-1 -24 -2 -55 -3 -71 l-2 -27 -352 2
-353 3 -3 68 -3 67 359 0 359 0 -2 -42z m6333 18 c2 -10 -1 -28 -7 -40 -6 -11
-12 -37 -14 -56 -4 -34 -4 -34 -5 6 -1 23 -9 47 -17 54 -18 15 -19 32 -3 48
17 17 42 11 46 -12z m-4701 -1 c7 -11 37 -15 138 -18 l130 -3 -132 -2 c-75 -1
-135 -6 -138 -12 -8 -14 -55 -13 -55 1 0 11 -576 8 -1250 -6 -155 -3 -227 -2
-213 5 13 5 320 12 739 16 584 6 717 10 721 21 7 18 50 17 60 -2z m396 -12
c-13 -2 -33 -2 -45 0 -13 2 -3 4 22 4 25 0 35 -2 23 -4z m6983 -62 c-15 -16
-21 -18 -37 -8 -24 15 -24 36 -1 53 14 11 20 10 36 -6 19 -19 19 -20 2 -39z
m-2148 42 c-10 -2 -26 -2 -35 0 -10 3 -2 5 17 5 19 0 27 -2 18 -5z m2337 -23
c0 -20 -5 -25 -25 -25 -20 0 -26 6 -28 28 -3 26 -1 28 25 25 22 -2 28 -8 28
-28z m185 15 c10 -12 10 -18 0 -30 -7 -8 -18 -15 -25 -15 -7 0 -18 7 -25 15
-10 12 -10 18 0 30 7 8 18 15 25 15 7 0 18 -7 25 -15z m-1898 -127 c13 -11 33
-48 25 -48 -1 0 -26 9 -55 20 -29 11 -78 21 -110 22 -56 2 -56 2 18 8 41 4 82
7 91 8 8 1 22 -4 31 -10z m-335 -4 c-3 -3 -12 -4 -19 -1 -8 3 -5 6 6 6 11 1
17 -2 13 -5z m-8167 -99 l0 -75 -410 0 -410 0 0 68 c0 38 3 72 7 75 3 4 188 7
410 7 l403 0 0 -75z m1435 -5 l0 -25 -167 -3 -168 -2 0 24 c0 22 5 25 48 29
26 2 101 3 167 3 l120 -1 0 -25z m1682 15 c33 -23 61 -75 69 -129 6 -41 4 -51
-11 -62 -13 -9 -20 -31 -23 -69 -2 -30 -8 -52 -13 -49 -5 3 -9 -12 -10 -33 0
-21 -3 -31 -6 -23 -2 8 -7 22 -10 30 -3 9 -10 -1 -17 -25 -11 -38 -15 -41 -68
-54 -46 -12 -58 -19 -63 -39 -9 -37 10 -126 26 -117 5 4 9 -9 9 -29 0 -29 -5
-37 -30 -48 -26 -11 -30 -18 -30 -50 0 -20 -4 -39 -9 -43 -16 -9 -33 33 -30
75 2 22 0 42 -4 46 -4 4 -7 2 -7 -4 0 -18 -18 -14 -24 6 -3 9 -3 1 0 -19 3
-27 0 -38 -11 -43 -8 -3 -15 -13 -15 -22 0 -26 -50 23 -51 50 0 21 -1 21 -8 1
-5 -11 -5 -24 -1 -30 4 -5 10 -28 14 -50 5 -29 4 -36 -4 -25 -8 12 -10 8 -8
-17 2 -31 23 -48 56 -44 7 1 13 -10 13 -26 2 -27 2 -27 6 -3 8 44 23 47 23 4
0 -38 -2 -40 -50 -59 -44 -17 -51 -24 -56 -54 -4 -19 -2 -42 4 -52 6 -9 9 -31
7 -49 -3 -18 0 -41 6 -51 5 -10 16 -62 24 -116 20 -127 40 -218 61 -268 9 -22
22 -53 29 -70 103 -249 191 -355 293 -355 40 0 46 10 21 36 -23 25 -18 44 12
44 12 0 17 4 14 11 -4 6 -9 43 -11 82 -4 59 -1 81 18 120 l22 49 31 -114 c28
-99 34 -113 53 -113 12 0 29 -9 38 -20 17 -22 17 -23 -2 48 l-6 22 17 -23 c12
-17 20 -21 28 -13 12 12 57 -23 57 -46 0 -7 3 -13 8 -13 4 0 8 -12 9 -26 1
-27 29 -89 50 -112 7 -7 17 -32 23 -55 7 -23 24 -71 40 -107 15 -36 33 -78 39
-93 8 -21 31 -38 93 -67 45 -22 88 -40 94 -40 7 0 15 -4 19 -10 8 -13 -44 5
-134 47 -41 18 -75 32 -77 30 -2 -2 2 -15 9 -30 11 -24 63 -57 89 -57 24 0
138 -61 138 -74 0 -12 -8 -12 -55 0 -30 8 -76 24 -102 35 l-47 20 19 -20 c18
-21 18 -21 -3 -21 -12 0 -22 -3 -22 -8 0 -4 20 -43 45 -86 25 -44 45 -82 45
-85 0 -3 34 -42 75 -85 41 -44 75 -81 75 -83 0 -2 -26 -3 -57 -3 -84 1 -299
-16 -313 -25 -8 -5 -8 -11 -2 -17 12 -12 122 0 122 14 0 5 8 4 19 -2 11 -5 30
-10 43 -11 49 -2 -47 -32 -127 -40 -44 -4 -123 -13 -175 -19 -52 -7 -126 -13
-165 -15 -38 -1 -83 -5 -100 -9 -16 -3 -85 -8 -152 -11 -67 -3 -134 -9 -148
-15 -14 -5 -62 -8 -105 -6 -63 3 -86 9 -107 26 -16 12 -27 24 -25 27 2 3 -14
14 -36 24 -58 29 -272 207 -394 328 l-108 106 0 -48 0 -47 -1020 0 -1020 0 0
75 0 75 995 0 996 0 -68 80 c-132 156 -155 186 -234 302 -43 65 -79 120 -79
122 0 2 -21 40 -46 83 -88 148 -253 488 -242 498 2 2 125 8 273 14 286 13 355
18 355 29 0 3 -12 16 -27 28 -17 14 -24 26 -20 37 10 26 26 20 48 -18 20 -33
22 -34 44 -19 25 16 39 7 29 -20 -5 -13 2 -16 40 -16 26 0 61 7 79 16 21 12
32 13 35 5 5 -15 87 -14 111 1 15 9 25 9 46 0 31 -14 151 -16 160 -3 3 5 43 9
90 9 47 -1 87 1 91 4 7 8 -36 219 -47 233 -5 5 -9 33 -9 62 0 47 -2 53 -24 59
-13 3 -113 3 -222 1 -110 -3 -307 -5 -439 -6 -132 -1 -352 -5 -490 -10 -222
-8 -283 -5 -264 13 2 2 303 8 669 11 366 4 685 10 710 14 l45 6 3 139 3 139
-382 -6 c-341 -6 -383 -8 -394 -24 -11 -15 -15 -15 -54 0 -26 11 -70 17 -120
17 l-78 0 -7 31 c-9 47 -7 89 4 89 6 0 10 8 10 18 0 14 -2 15 -10 2 -8 -12
-10 -10 -10 8 0 13 4 20 10 17 6 -3 10 -1 10 4 0 6 7 11 15 11 8 0 15 6 15 13
1 7 6 5 14 -6 8 -10 20 -16 27 -15 8 2 13 -3 12 -9 -2 -7 6 -13 17 -13 11 0
20 5 20 11 0 5 -5 7 -11 3 -7 -4 -10 -1 -7 7 3 8 15 14 28 14 17 0 26 -8 34
-31 10 -28 14 -30 35 -23 26 10 43 3 22 -10 -10 -6 -9 -10 3 -14 11 -4 16 -17
14 -35 -4 -60 -35 -58 554 -45 l226 5 22 88 c12 49 35 115 51 147 16 32 29 63
29 70 0 18 114 157 152 187 72 54 161 72 205 41z m4487 -35 c-10 -16 -20 -27
-22 -25 -5 5 26 55 34 55 3 0 -3 -13 -12 -30z m-4327 -17 c4 -10 10 -20 15
-23 4 -3 4 -21 -1 -40 -5 -19 -12 -114 -15 -211 -3 -97 -8 -183 -12 -192 -22
-59 -32 43 -15 153 4 30 5 78 2 105 l-7 50 -8 -45 c-4 -25 -7 -101 -6 -170 0
-103 3 -127 17 -137 15 -12 15 -14 0 -31 -11 -12 -17 -36 -17 -68 0 -69 11
-128 21 -113 11 18 17 -32 28 -226 5 -93 17 -224 26 -289 9 -65 14 -126 12
-135 -6 -26 -30 38 -31 84 -1 22 -8 48 -17 58 -31 34 -48 273 -55 777 -3 228
-8 418 -10 422 -3 4 -1 8 4 8 5 0 12 9 15 20 6 25 45 27 54 3z m-2797 -188 l0
-75 -540 0 -540 0 0 68 c0 38 3 72 7 75 3 4 246 7 540 7 l533 0 0 -75z m470
-5 l0 -80 -182 2 -183 3 -3 64 c-2 35 -1 70 2 77 4 11 43 14 186 14 l180 0 0
-80z m160 46 c0 -13 3 -44 6 -70 l7 -46 -32 0 -31 0 0 70 c0 68 1 70 25 70 20
0 25 -5 25 -24z m6740 -44 c62 -31 102 -61 145 -112 11 -13 -7 -3 -40 23 -100
77 -164 101 -270 101 -50 0 -108 -6 -130 -13 -75 -26 -170 -96 -230 -170 -56
-70 -85 -89 -50 -34 67 105 163 185 264 220 54 20 82 23 156 20 77 -3 99 -8
155 -35z m-6572 3 c1 -14 -3 -25 -8 -25 -6 0 -10 11 -10 25 0 14 4 25 8 25 4
0 9 -11 10 -25z m-31 -27 c-3 -7 -5 -2 -5 12 0 14 2 19 5 13 2 -7 2 -19 0 -25z
m70 10 c-3 -8 -6 -5 -6 6 -1 11 2 17 5 13 3 -3 4 -12 1 -19z m90 -15 c-3 -10
-5 -4 -5 12 0 17 2 24 5 18 2 -7 2 -21 0 -30z m20 15 c-3 -8 -6 -5 -6 6 -1 11
2 17 5 13 3 -3 4 -12 1 -19z m1240 -11 c10 -11 -33 -26 -48 -16 -19 12 -236
11 -599 -2 -275 -9 -440 -6 -425 10 4 3 48 8 98 11 118 6 967 4 974 -3z
m-1300 -94 c-2 -21 -4 -6 -4 32 0 39 2 55 4 38 2 -18 2 -50 0 -70z m80 75 c-3
-8 -6 -5 -6 6 -1 11 2 17 5 13 3 -3 4 -12 1 -19z m3638 4 c-3 -3 -11 0 -18 7
-9 10 -8 11 6 5 10 -3 15 -9 12 -12z m-3810 -47 c1 -26 -2 -48 -7 -51 -4 -3
-8 21 -8 52 0 67 13 66 15 -1z m202 -22 c-2 -16 -4 -3 -4 27 0 30 2 43 4 28 2
-16 2 -40 0 -55z m-77 37 c-4 -3 -10 -12 -13 -20 -3 -8 -6 0 -6 18 -1 28 1 31
13 20 8 -7 10 -15 6 -18z m185 -20 c-3 -4 2 -13 10 -20 16 -13 13 -62 -5 -68
-5 -2 -10 -8 -10 -13 0 -4 7 -6 15 -3 12 5 15 -6 15 -65 0 -57 -3 -71 -15 -71
-9 0 -15 -6 -14 -12 8 -40 -14 -188 -32 -214 -23 -35 -24 -24 -8 81 6 39 10
85 11 103 0 17 4 32 9 32 5 0 9 69 10 153 0 105 3 145 10 129 5 -13 7 -27 4
-32z m-25 10 c0 -5 -4 -10 -10 -10 -5 0 -10 5 -10 10 0 6 5 10 10 10 6 0 10
-4 10 -10z m-41 -36 c6 4 11 2 11 -3 0 -6 -9 -11 -20 -11 -12 0 -20 7 -20 18
0 13 2 14 9 3 5 -7 14 -10 20 -7z m41 -21 c0 -42 -11 -38 -16 7 -2 16 1 30 6
30 6 0 10 -16 10 -37z m-116 -9 c3 -8 2 -12 -4 -9 -6 3 -10 10 -10 16 0 14 7
11 14 -7z m6244 -7 c9 -8 16 -7 20 0 16 24 53 25 77 3 15 -14 25 -18 30 -11 9
15 25 4 25 -17 0 -10 9 -23 20 -30 17 -11 19 -19 13 -72 -5 -48 -3 -60 8 -60
18 -1 63 -40 74 -65 11 -27 15 -75 5 -75 -4 0 -10 10 -14 22 -5 22 -6 23 -21
3 -12 -14 -18 -16 -21 -7 -8 18 -24 15 -24 -5 -1 -31 -20 10 -26 57 -5 33 -3
40 11 40 23 0 13 24 -11 28 -26 4 -77 -49 -68 -71 3 -10 16 -17 29 -17 13 0
26 -8 29 -17 10 -24 -4 -100 -20 -114 -8 -6 -14 -20 -14 -30 0 -13 -7 -19 -24
-19 -13 0 -30 -9 -37 -20 -9 -12 -28 -21 -49 -22 -30 -3 -35 0 -36 20 -2 31
-4 32 -46 23 -35 -8 -37 -7 -43 20 -9 40 -25 36 -25 -6 0 -22 -6 -38 -15 -41
-8 -4 -15 -13 -15 -21 0 -22 -23 -10 -38 19 -15 33 -2 73 27 81 21 5 45 52 35
68 -3 5 -13 9 -23 9 -11 0 -29 8 -41 18 -20 16 -20 19 -6 47 9 17 16 40 16 53
0 21 7 25 40 23 8 0 23 11 33 25 19 25 19 25 -2 31 -17 4 -19 9 -10 24 5 11 8
23 5 28 -3 5 1 14 9 21 8 7 15 21 15 32 0 12 12 24 32 32 32 14 51 12 76 -7z
m-6211 -49 c-2 -13 -4 -3 -4 22 0 25 2 35 4 23 2 -13 2 -33 0 -45z m-199 27
c-3 -3 -9 2 -12 12 -6 14 -5 15 5 6 7 -7 10 -15 7 -18z m250 -82 l-2 -108 -5
100 c-3 55 -5 103 -3 108 9 22 12 -4 10 -100z m-1828 22 l0 -75 -260 0 -260 0
0 75 0 75 260 0 260 0 0 -75z m1667 13 c-2 -13 -4 -5 -4 17 -1 22 1 32 4 23 2
-10 2 -28 0 -40z m20 -90 c-2 -29 -3 -8 -3 47 0 55 1 79 3 53 2 -26 2 -71 0
-100z m-70 110 c-3 -8 -6 -5 -6 6 -1 11 2 17 5 13 3 -3 4 -12 1 -19z m243 12
c0 -5 -4 -10 -10 -10 -5 0 -10 5 -10 10 0 6 5 10 10 10 6 0 10 -4 10 -10z
m-56 -15 c-4 -8 -8 -15 -10 -15 -2 0 -4 7 -4 15 0 8 4 15 10 15 5 0 7 -7 4
-15z m6611 5 c3 -5 57 -11 118 -12 l112 -2 -105 -3 c-58 -2 -112 -6 -120 -10
-30 -12 -51 -9 -61 8 -5 10 -9 20 -9 23 0 10 59 6 65 -4z m-6708 -37 c-3 -10
-5 -4 -5 12 0 17 2 24 5 18 2 -7 2 -21 0 -30z m-90 -5 c-3 -8 -6 -5 -6 6 -1
11 2 17 5 13 3 -3 4 -12 1 -19z m-50 -10 c-3 -8 -6 -5 -6 6 -1 11 2 17 5 13 3
-3 4 -12 1 -19z m210 -40 c-2 -13 -4 -5 -4 17 -1 22 1 32 4 23 2 -10 2 -28 0
-40z m33 38 c0 -8 -4 -18 -10 -21 -5 -3 -10 3 -10 14 0 12 5 21 10 21 6 0 10
-6 10 -14z m-142 -68 l-1 -73 -6 65 c-4 36 -5 68 -3 73 9 20 12 0 10 -65z
m1772 40 c0 -19 -2 -20 -10 -8 -13 19 -13 30 0 30 6 0 10 -10 10 -22z m-1873
-35 c-3 -10 -5 -2 -5 17 0 19 2 27 5 18 2 -10 2 -26 0 -35z m70 15 c-3 -8 -6
-5 -6 6 -1 11 2 17 5 13 3 -3 4 -12 1 -19z m5894 -5 c-12 -20 -14 -14 -5 12 4
9 9 14 11 11 3 -2 0 -13 -6 -23z m-5914 -15 c-3 -7 -5 -2 -5 12 0 14 2 19 5
13 2 -7 2 -19 0 -25z m100 10 c-3 -8 -6 -5 -6 6 -1 11 2 17 5 13 3 -3 4 -12 1
-19z m93 -3 c0 -14 -3 -25 -7 -25 -5 0 -8 11 -8 25 0 14 3 25 8 25 4 0 7 -11
7 -25z m3445 4 c5 -16 10 -18 21 -8 11 9 14 8 14 -2 0 -11 2 -11 10 1 9 13 11
13 20 0 6 -10 13 -11 18 -5 15 22 63 1 90 -39 20 -30 23 -46 24 -155 1 -80 -3
-126 -10 -133 -7 -7 -12 -20 -12 -30 0 -10 -7 -21 -15 -24 -8 -3 -17 -14 -20
-25 -4 -11 -10 -17 -15 -14 -5 3 -11 1 -15 -5 -4 -6 -11 -8 -16 -5 -5 4 -9 -2
-10 -12 0 -10 -3 -13 -6 -5 -7 18 -33 15 -33 -4 0 -14 -3 -14 -15 -4 -12 10
-15 10 -16 -1 0 -8 -2 -9 -5 -3 -3 6 -16 9 -29 6 -14 -2 -25 0 -25 5 0 8 -184
10 -226 2 -19 -3 -47 1 -42 7 3 3 -5 16 -18 29 -24 24 -29 51 -25 125 3 48 32
169 42 176 5 3 9 14 9 25 0 10 5 19 10 19 6 0 10 5 10 11 0 6 14 24 30 39 17
15 30 26 30 23 0 -2 10 3 22 11 16 12 47 16 110 16 79 0 87 -2 93 -21z m3008
-46 c14 -20 23 -41 20 -47 -4 -6 -11 -2 -17 9 -6 10 -19 27 -28 37 -10 10 -18
23 -18 28 0 20 17 9 43 -27z m-6696 -95 c-2 -24 -4 -7 -4 37 0 44 2 63 4 43 2
-21 2 -57 0 -80z m-20 70 c-3 -7 -5 -2 -5 12 0 14 2 19 5 13 2 -7 2 -19 0 -25z
m6177 6 c27 -26 20 -44 -18 -44 -54 0 -99 -37 -113 -95 -22 -86 17 -150 97
-161 40 -5 47 -9 43 -25 -7 -24 -61 -26 -112 -3 -71 31 -105 152 -66 230 17
34 81 97 102 100 8 2 17 5 21 8 10 11 30 6 46 -10z m828 -102 c98 3 176 3 174
0 -3 -2 -83 -8 -178 -13 l-173 -9 -32 35 c-18 19 -33 39 -33 45 0 6 14 -6 32
-26 l32 -37 178 5z m-7002 28 c0 -5 -2 -10 -4 -10 -3 0 -8 5 -11 10 -3 6 -1
10 4 10 6 0 11 -4 11 -10z m6217 -37 c19 -45 19 -65 1 -76 -14 -9 -23 -7 -45
10 -32 24 -32 49 -1 76 27 23 31 22 45 -10z m-3868 -30 c0 -34 -1 -36 -11 -16
-6 12 -8 29 -5 37 11 27 17 18 16 -21z m3306 7 c8 -13 196 -13 231 1 34 12 74
4 74 -16 0 -8 -9 -24 -20 -35 -19 -19 -19 -19 -39 5 -18 24 -24 25 -124 25
-81 0 -107 -3 -117 -15 -7 -8 -18 -15 -25 -15 -7 0 -18 7 -25 15 -10 12 -10
18 0 30 14 17 36 20 45 5z m998 -100 c21 -25 22 -44 2 -74 -16 -24 -41 -27
-96 -12 -22 6 -26 13 -25 39 2 20 7 31 15 29 7 -1 18 4 25 12 9 12 20 17 56
25 3 0 13 -8 23 -19z m610 -208 c-5 -58 -5 -59 28 -82 19 -13 37 -29 41 -35 4
-5 8 -52 8 -103 0 -118 -20 -158 -83 -166 -9 -1 -10 385 -1 421 10 39 12 26 7
-35z m-6538 8 c9 -28 -12 -60 -38 -60 -27 0 -47 17 -47 42 0 36 74 53 85 18z
m192 -4 c15 -13 25 -27 21 -31 -8 -9 -66 25 -72 42 -9 21 21 15 51 -11z m87
-92 c3 -9 4 -20 0 -25 -14 -23 -57 2 -47 27 7 19 39 18 47 -2z m-444 -59 c0
-19 -20 -29 -32 -17 -8 8 -7 16 2 26 14 17 30 12 30 -9z m1535 -346 c17 -78
14 -119 -9 -119 -7 0 -16 14 -20 31 -13 65 -5 182 10 166 2 -2 11 -37 19 -78z
m5175 26 c0 -9 7 -18 15 -21 8 -4 15 -15 15 -25 0 -10 4 -19 9 -19 5 0 14 -14
21 -30 10 -23 10 -33 1 -44 -7 -8 -11 -32 -8 -53 l4 -38 1 43 c3 77 22 45 22
-38 0 -50 -4 -80 -11 -80 -11 0 -39 -24 -39 -34 0 -4 9 -1 19 6 28 17 61 -14
61 -59 0 -26 -4 -33 -19 -33 -28 0 -31 -8 -36 -106 -3 -54 -10 -91 -18 -96 -9
-6 -9 -10 2 -17 16 -10 34 -97 25 -124 -3 -11 -12 -16 -20 -13 -8 3 -14 1 -14
-3 0 -5 6 -11 13 -14 21 -8 3 -15 -24 -10 -20 4 -30 14 -39 43 -7 21 -10 46
-6 56 8 21 -2 56 -15 49 -5 -4 -9 12 -9 33 0 31 4 41 20 45 14 4 20 13 20 34
0 44 -11 73 -26 73 -25 0 -27 28 -5 56 20 25 21 39 21 230 0 129 4 204 10 204
6 0 10 -7 10 -15z m618 -141 c20 -4 22 -10 22 -73 0 -72 -24 -219 -38 -233 -4
-4 -35 -3 -69 3 -53 9 -62 14 -66 35 -2 13 0 24 4 24 5 0 9 36 9 80 0 47 -4
80 -10 80 -5 0 -10 18 -10 40 0 25 -5 41 -12 41 -7 1 3 4 22 8 36 6 107 4 148
-5z m-5361 -680 c-3 -3 -12 -4 -19 -1 -8 3 -5 6 6 6 11 1 17 -2 13 -5z m4056
-9 c-3 -9 -8 -14 -10 -11 -3 3 -2 9 2 15 9 16 15 13 8 -4z m717 5 c0 -5 -7
-10 -16 -10 -8 0 -12 5 -9 10 3 6 10 10 16 10 5 0 9 -4 9 -10z m-8910 -85 l0
-75 -427 2 -428 3 -3 59 c-2 32 -1 65 2 72 4 12 81 14 431 14 l425 0 0 -75z
m315 43 c3 -18 5 -51 3 -73 l-3 -40 -113 -3 -112 -3 0 76 0 75 110 0 109 0 6
-32z m8112 -60 c-2 -13 -4 -3 -4 22 0 25 2 35 4 23 2 -13 2 -33 0 -45z m-4297
0 c0 -12 -28 3 -34 18 -4 11 -2 12 14 1 11 -6 20 -15 20 -19z m343 -4 c59 -9
107 -21 107 -27 0 -5 -19 -6 -47 -2 -27 4 -64 9 -83 11 -65 7 -130 26 -124 35
3 6 13 8 22 5 10 -3 65 -12 125 -22z m870 -1 c-34 -2 -93 -2 -130 0 -37 2 -9
3 62 3 72 0 102 -1 68 -3z m-1118 -33 c7 -12 -8 -14 -19 -2 -7 7 -11 8 -38 11
-9 1 -9 4 1 10 15 10 44 0 56 -19z m175 -15 c12 -14 6 -35 -10 -35 -11 0 -40
29 -40 41 0 14 36 11 50 -6z m100 -30 c0 -8 -6 -15 -14 -15 -8 0 -16 7 -20 15
-4 10 1 15 14 15 11 0 20 -7 20 -15z m80 -15 c9 -17 8 -20 -14 -20 -27 0 -41
14 -31 30 10 17 34 11 45 -10z m-3786 -66 c3 -9 6 -42 6 -74 l0 -58 -592 -7
c-326 -3 -699 -5 -828 -3 l-235 3 -3 78 -3 77 825 0 c742 0 824 -2 830 -16z
m404 -61 l3 -73 -156 0 -155 0 0 75 0 76 153 -3 152 -3 3 -72z m7229 11 c-3
-3 -12 -4 -19 -1 -8 3 -5 6 6 6 11 1 17 -2 13 -5z m-2905 -113 c15 -17 14 -19
-6 -29 -34 -17 -66 -24 -66 -15 0 22 26 63 40 63 9 0 23 -8 32 -19z m-1812
-400 c0 -5 3 -16 6 -24 4 -11 -5 -20 -28 -30 -53 -24 -61 -25 -90 -10 -31 15
-37 33 -12 33 9 0 12 -5 8 -12 -5 -8 -2 -9 12 -4 10 5 27 11 37 13 10 3 16 11
13 19 -3 7 0 15 7 18 21 8 47 6 47 -3z m1325 -578 c0 -84 2 -93 20 -96 11 -3
6 -5 -13 -6 -19 0 -31 -5 -27 -11 4 -7 -58 -10 -179 -10 -214 0 -193 -15 -188
132 l3 87 192 -2 192 -2 0 -92z m285 -168 c0 -8 -7 -15 -15 -15 -26 0 -18 20
13 29 1 1 2 -6 2 -14z m-360 -11 c0 -2 -11 -4 -25 -4 -14 0 -25 4 -25 9 0 4
11 6 25 3 14 -2 25 -6 25 -8z m-22 -51 c-12 -3 -18 -17 -21 -46 l-4 -42 -1 48
c-2 43 0 47 21 46 16 -1 17 -3 5 -6z"/>
<path d="M12616 7908 c-9 -12 -13 -24 -10 -27 3 -3 9 1 13 8 7 11 9 11 14 0 2
-8 4 -2 3 13 -1 34 -1 34 -20 6z"/>
<path d="M12665 7850 c-3 -5 -1 -10 4 -10 6 0 11 5 11 10 0 6 -2 10 -4 10 -3
0 -8 -4 -11 -10z"/>
<path d="M12303 7403 c1 -22 17 -34 17 -13 0 5 7 7 15 4 8 -4 15 -1 15 6 0 7
-8 10 -20 7 -10 -3 -21 0 -24 7 -2 6 -3 1 -3 -11z"/>
<path d="M12307 6895 c-15 -21 -22 -23 -38 -15 -16 9 -19 7 -19 -8 0 -22 19
-42 40 -42 14 1 60 61 60 81 0 18 -25 8 -43 -16z"/>
<path d="M12310 6512 c-18 -25 -26 -29 -37 -20 -22 18 -28 0 -8 -22 24 -26 26
-26 53 15 31 45 24 70 -8 27z"/>
<path d="M5995 6280 c4 -6 11 -8 16 -5 14 9 11 15 -7 15 -8 0 -12 -5 -9 -10z"/>
<path d="M6050 6279 c0 -5 5 -7 10 -4 6 3 10 8 10 11 0 2 -4 4 -10 4 -5 0 -10
-5 -10 -11z"/>
<path d="M6181 6234 c0 -11 3 -14 6 -6 3 7 2 16 -1 19 -3 4 -6 -2 -5 -13z"/>
<path d="M5910 6198 c0 -15 8 -18 43 -16 40 1 40 1 7 5 -19 3 -38 10 -42 16
-5 8 -8 6 -8 -5z"/>
<path d="M6230 6179 c0 -5 5 -7 10 -4 6 3 10 8 10 11 0 2 -4 4 -10 4 -5 0 -10
-5 -10 -11z"/>
<path d="M5850 6136 c0 -9 30 -14 35 -6 4 6 -3 10 -14 10 -12 0 -21 -2 -21 -4z"/>
<path d="M6228 6083 c7 -3 16 -2 19 1 4 3 -2 6 -13 5 -11 0 -14 -3 -6 -6z"/>
<path d="M5856 5868 c3 -5 10 -6 15 -3 13 9 11 12 -6 12 -8 0 -12 -4 -9 -9z"/>
<path d="M6138 5803 c7 -3 16 -2 19 1 4 3 -2 6 -13 5 -11 0 -14 -3 -6 -6z"/>
<path d="M6170 5806 c0 -2 16 -6 35 -8 19 -2 35 0 35 4 0 4 -16 8 -35 8 -19 0
-35 -2 -35 -4z"/>
<path d="M6225 5770 c-3 -5 -1 -18 4 -27 9 -15 10 -14 9 10 -3 30 -4 32 -13
17z"/>
<path d="M6045 5761 c-3 -5 -1 -12 5 -16 5 -3 10 1 10 9 0 18 -6 21 -15 7z"/>
<path d="M6052 5700 c0 -14 2 -19 5 -12 2 6 2 18 0 25 -3 6 -5 1 -5 -13z"/>
<path d="M6130 5711 c0 -6 5 -13 10 -16 6 -3 10 1 10 9 0 9 -4 16 -10 16 -5 0
-10 -4 -10 -9z"/>
<path d="M6220 5710 c0 -5 5 -10 10 -10 6 0 10 5 10 10 0 6 -4 10 -10 10 -5 0
-10 -4 -10 -10z"/>
<path d="M5951 5674 c0 -11 3 -14 6 -6 3 7 2 16 -1 19 -3 4 -6 -2 -5 -13z"/>
<path d="M6002 5660 c0 -19 2 -27 5 -17 2 9 2 25 0 35 -3 9 -5 1 -5 -18z"/>
<path d="M6046 5655 c4 -8 8 -15 10 -15 2 0 4 7 4 15 0 8 -4 15 -10 15 -5 0
-7 -7 -4 -15z"/>
<path d="M6044 5619 c-3 -6 -1 -16 5 -22 8 -8 11 -5 11 11 0 24 -5 28 -16 11z"/>
<path d="M6000 5609 c0 -5 5 -7 10 -4 6 3 10 8 10 11 0 2 -4 4 -10 4 -5 0 -10
-5 -10 -11z"/>
<path d="M7095 6231 c-3 -5 -1 -12 5 -16 5 -3 10 1 10 9 0 18 -6 21 -15 7z"/>
<path d="M7147 6153 c2 -108 5 -125 12 -73 7 52 2 150 -7 150 -4 0 -6 -35 -5
-77z"/>
<path d="M6962 6155 c0 -16 2 -22 5 -12 2 9 2 23 0 30 -3 6 -5 -1 -5 -18z"/>
<path d="M7195 6170 c3 -5 8 -10 11 -10 2 0 4 5 4 10 0 6 -5 10 -11 10 -5 0
-7 -4 -4 -10z"/>
<path d="M7195 6120 c3 -5 8 -10 11 -10 2 0 4 5 4 10 0 6 -5 10 -11 10 -5 0
-7 -4 -4 -10z"/>
<path d="M6962 6090 c0 -19 2 -27 5 -17 2 9 2 25 0 35 -3 9 -5 1 -5 -18z"/>
<path d="M7242 6080 c0 -14 2 -19 5 -12 2 6 2 18 0 25 -3 6 -5 1 -5 -13z"/>
<path d="M6871 6034 c0 -11 3 -14 6 -6 3 7 2 16 -1 19 -3 4 -6 -2 -5 -13z"/>
<path d="M6850 5996 c0 -9 30 -14 35 -6 4 6 -3 10 -14 10 -12 0 -21 -2 -21 -4z"/>
<path d="M7153 5925 c0 -44 2 -61 4 -37 2 23 2 59 0 80 -2 20 -4 1 -4 -43z"/>
<path d="M6960 5894 c0 -8 5 -12 10 -9 6 4 8 11 5 16 -9 14 -15 11 -15 -7z"/>
<path d="M7147 5810 c-3 -11 -1 -23 4 -26 5 -3 9 6 9 20 0 31 -6 34 -13 6z"/>
<path d="M6961 5794 c0 -11 3 -14 6 -6 3 7 2 16 -1 19 -3 4 -6 -2 -5 -13z"/>
<path d="M6960 5620 c0 -5 5 -10 10 -10 6 0 10 5 10 10 0 6 -4 10 -10 10 -5 0
-10 -4 -10 -10z"/>
<path d="M3163 5276 c-55 -15 -58 -20 -32 -50 24 -28 39 -29 147 -10 31 5 40
10 30 16 -8 6 8 8 45 6 42 -2 57 0 57 10 0 9 -7 11 -19 7 -12 -3 -23 0 -28 8
-11 19 -146 28 -200 13z m117 -32 c0 -8 -5 -12 -10 -9 -6 4 -8 11 -5 16 9 14
15 11 15 -7z"/>
<path d="M3175 5079 c-4 -6 -3 -15 2 -20 14 -14 236 -14 241 0 5 16 -10 19
-130 25 -73 5 -109 3 -113 -5z"/>
<path d="M3468 5073 c-27 -7 -21 -28 7 -28 14 0 25 5 25 12 0 15 -11 20 -32
16z"/>
<path d="M3592 5035 c0 -16 2 -22 5 -12 2 9 2 23 0 30 -3 6 -5 -1 -5 -18z"/>
<path d="M12310 6140 c-16 -23 -26 -28 -33 -21 -15 15 -27 14 -27 -2 0 -13 30
-47 42 -47 3 0 18 18 33 40 20 28 25 44 18 51 -7 7 -17 1 -33 -21z"/>
<path d="M9101 5834 c0 -11 3 -14 6 -6 3 7 2 16 -1 19 -3 4 -6 -2 -5 -13z"/>
<path d="M12312 5765 c-16 -19 -27 -25 -42 -20 -14 4 -20 2 -20 -8 0 -13 30
-47 42 -47 3 0 18 18 33 40 20 28 25 44 18 51 -7 7 -17 2 -31 -16z"/>
<path d="M12309 5380 c-18 -23 -25 -27 -36 -18 -18 15 -30 1 -17 -20 19 -30
47 -25 72 13 37 58 21 80 -19 25z"/>
<path d="M4833 5040 c0 -25 2 -35 4 -22 2 12 2 32 0 45 -2 12 -4 2 -4 -23z"/>
<path d="M4354 5055 c0 -60 1 -84 3 -52 2 32 2 81 0 110 -2 29 -3 3 -3 -58z"/>
<path d="M3681 5078 c0 -46 3 -90 9 -98 7 -10 10 15 10 83 0 53 -4 97 -9 97
-5 0 -9 -37 -10 -82z"/>
<path d="M3689 4938 c-3 -23 3 -103 7 -107 2 -2 4 23 4 57 0 34 -2 62 -5 62
-3 0 -6 -6 -6 -12z"/>
<path d="M4194 5020 c0 -69 1 -97 3 -62 2 34 2 90 0 125 -2 34 -3 6 -3 -63z"/>
<path d="M3771 5114 c0 -11 3 -14 6 -6 3 7 2 16 -1 19 -3 4 -6 -2 -5 -13z"/>
<path d="M3772 4910 c0 -19 2 -27 5 -17 2 9 2 25 0 35 -3 9 -5 1 -5 -18z"/>
<path d="M4622 5080 c0 -19 2 -27 5 -17 2 9 2 25 0 35 -3 9 -5 1 -5 -18z"/>
<path d="M6208 4763 c34 -2 88 -2 120 0 31 2 3 3 -63 3 -66 0 -92 -1 -57 -3z"/>
<path d="M3349 3948 c-1 -7 -1 -18 0 -25 1 -6 -3 -14 -9 -18 -5 -3 -9 -18 -9
-33 2 -26 2 -26 6 -3 4 19 7 21 14 10 6 -9 8 2 7 34 -1 44 -6 63 -9 35z"/>
<path d="M4582 3780 c0 -14 2 -19 5 -12 2 6 2 18 0 25 -3 6 -5 1 -5 -13z"/>
<path d="M4477 3769 c7 -7 15 -10 18 -7 3 3 -2 9 -12 12 -14 6 -15 5 -6 -5z"/>
<path d="M4510 3510 c0 -5 5 -10 11 -10 5 0 7 5 4 10 -3 6 -8 10 -11 10 -2 0
-4 -4 -4 -10z"/>
<path d="M5080 1550 c-14 -5 -70 -9 -125 -9 -91 -1 -138 -11 -124 -25 3 -3 21
-6 40 -7 45 -2 342 20 347 26 4 3 -10 6 -93 19 -11 2 -31 0 -45 -4z"/>
<path d="M4542 1515 c-27 -15 -22 -20 31 -30 29 -6 42 -3 57 10 11 10 17 22
14 26 -8 13 -75 9 -102 -6z"/>
<path d="M4676 1521 c-13 -20 21 -27 83 -18 43 6 59 12 50 18 -18 11 -126 12
-133 0z"/>
<path d="M4392 1510 c-22 -9 -28 -34 -8 -30 5 1 13 -4 18 -12 7 -10 11 -10 15
0 2 6 12 12 22 12 9 0 26 7 37 15 19 14 19 14 -1 15 -11 0 -29 2 -40 5 -11 2
-31 0 -43 -5z"/>
<path d="M4920 4184 c0 -14 4 -23 9 -20 5 3 7 15 4 26 -7 28 -13 25 -13 -6z"/>
<path d="M9330 3910 c0 -5 5 -10 10 -10 6 0 10 5 10 10 0 6 -4 10 -10 10 -5 0
-10 -4 -10 -10z"/>
<path d="M9325 3757 c-38 -47 -38 -46 -25 -95 30 -114 46 -146 65 -130 5 4 22
17 38 29 21 16 27 28 27 60 0 50 -15 79 -40 79 -12 0 -25 13 -36 35 -9 19 -17
35 -18 35 0 -1 -5 -6 -11 -13z"/>
<path d="M9370 3746 c0 -2 7 -6 15 -10 8 -3 15 -1 15 4 0 6 -7 10 -15 10 -8 0
-15 -2 -15 -4z"/>
<path d="M160 8160 c0 -5 18 -10 40 -10 22 0 40 5 40 10 0 6 -18 10 -40 10
-22 0 -40 -4 -40 -10z"/>
<path d="M6155 8155 c-71 -8 -136 -14 -142 -14 -7 -1 -13 -6 -13 -12 0 -9 36
-10 134 -5 148 8 180 0 212 -50 27 -40 36 -184 18 -272 -21 -102 -10 -288 18
-303 10 -5 23 -7 29 -3 7 4 10 80 8 228 l-2 221 41 -1 c22 0 40 2 40 5 -1 3 2
33 6 66 4 33 9 81 12 108 l6 47 -119 -1 c-65 -1 -176 -7 -248 -14z"/>
<path d="M6628 8165 c-5 -6 -2 -63 8 -125 5 -31 7 -32 16 -15 6 11 24 32 39
47 33 30 40 82 13 92 -19 7 -69 8 -76 1z"/>
<path d="M10091 8156 c11 -9 69 -14 69 -6 0 6 -16 10 -37 10 -20 0 -34 -2 -32
-4z"/>
<path d="M6900 8115 c0 -40 9 -44 35 -15 10 11 31 20 49 21 26 0 23 2 -19 14
-67 19 -65 20 -65 -20z"/>
<path d="M6446 7914 c-11 -28 -7 -714 4 -714 6 0 10 128 10 365 0 201 -2 365
-4 365 -2 0 -7 -7 -10 -16z"/>
<path d="M240 7868 c0 -8 7 -21 15 -28 19 -16 19 -1 0 24 -12 16 -15 17 -15 4z"/>
<path d="M10818 7873 c12 -2 32 -2 45 0 12 2 2 4 -23 4 -25 0 -35 -2 -22 -4z"/>
<path d="M6631 7770 c-6 -20 -10 -86 -10 -146 1 -70 -4 -139 -15 -191 -13 -60
-15 -87 -7 -102 12 -22 66 -63 73 -56 2 3 3 43 1 90 -3 81 -2 85 22 101 24 16
25 19 25 143 l0 126 -39 36 -38 37 -12 -38z"/>
<path d="M6906 7794 c-3 -9 -6 -71 -6 -140 0 -68 -5 -144 -12 -169 -10 -38
-10 -50 5 -81 25 -51 15 -87 -30 -114 -33 -20 -35 -23 -30 -61 3 -22 11 -47
18 -55 10 -13 15 -12 36 8 13 12 51 38 85 58 79 45 87 59 65 105 -14 30 -17
68 -17 235 l0 200 -40 0 c-22 0 -40 4 -40 9 0 16 -28 20 -34 5z"/>
<path d="M6492 7745 c0 -16 2 -22 5 -12 2 9 2 23 0 30 -3 6 -5 -1 -5 -18z"/>
<path d="M0 7646 l0 -56 40 0 c29 0 40 4 40 15 0 11 11 15 40 15 38 0 40 -2
40 -30 l0 -30 -80 0 -80 0 0 -40 0 -40 40 0 40 0 0 -40 0 -40 40 0 40 0 0 40
0 40 40 0 40 0 0 45 c0 25 5 45 10 45 6 0 10 29 9 68 0 50 -3 61 -9 45 -9 -22
-15 -23 -92 -21 l-83 2 82 3 c94 4 114 23 24 23 -32 0 -86 3 -120 6 l-61 7 0
-57z"/>
<path d="M5077 7470 c3 -11 7 -20 9 -20 2 0 4 9 4 20 0 11 -4 20 -9 20 -5 0
-7 -9 -4 -20z"/>
<path d="M5996 7417 c-3 -13 -24 -45 -46 -70 l-41 -46 17 -36 c23 -49 31 -51
63 -21 21 20 34 26 53 21 21 -5 26 -2 34 27 13 43 2 93 -27 124 -28 30 -45 31
-53 1z"/>
<path d="M6790 7395 c7 -8 17 -12 22 -9 6 4 5 10 -3 15 -22 14 -33 10 -19 -6z"/>
<path d="M8095 7390 c-8 -13 3 -68 16 -75 9 -6 58 24 59 36 1 25 -63 59 -75
39z"/>
<path d="M7570 7365 c0 -20 4 -26 18 -23 9 2 17 12 17 23 0 11 -8 21 -17 23
-14 3 -18 -3 -18 -23z"/>
<path d="M6186 7328 c-9 -12 -16 -32 -16 -45 0 -22 -52 -68 -64 -56 -3 3 -6 3
-6 0 0 -4 9 -16 21 -28 21 -21 63 -23 65 -1 1 6 2 22 3 35 1 13 19 35 46 55
51 39 51 62 -1 62 -23 0 -38 -7 -48 -22z"/>
<path d="M5773 7298 c2 -7 10 -13 17 -13 7 0 15 6 18 13 2 7 -5 12 -18 12 -13
0 -20 -5 -17 -12z"/>
<path d="M6680 7238 c0 -13 5 -30 10 -38 9 -13 11 -13 19 -1 6 9 4 22 -6 38
-19 29 -23 29 -23 1z"/>
<path d="M4261 7184 c-29 -26 -35 -41 -53 -133 l-20 -103 33 -34 c26 -26 32
-42 33 -76 l1 -43 55 -7 c30 -4 84 -3 121 3 l66 10 -5 72 c-3 52 -10 78 -23
93 -25 27 -39 77 -39 136 0 64 -29 98 -91 105 -40 5 -50 2 -78 -23z"/>
<path d="M254 6980 c0 -124 2 -174 3 -112 2 61 2 163 0 225 -1 61 -3 11 -3
-113z"/>
<path d="M0 6760 l0 -400 80 0 80 0 0 -40 0 -40 40 0 40 0 0 160 0 160 -80 0
-80 0 0 120 0 120 40 0 40 0 0 40 0 40 40 0 40 0 0 120 0 120 -120 0 -120 0 0
-400z"/>
<path d="M7376 6964 c-14 -36 -6 -82 17 -97 22 -14 24 -13 50 33 15 26 27 50
27 53 0 6 -58 27 -75 27 -7 0 -16 -7 -19 -16z"/>
<path d="M5958 6653 c7 -3 16 -2 19 1 4 3 -2 6 -13 5 -11 0 -14 -3 -6 -6z"/>
<path d="M6078 6643 c7 -3 16 -2 19 1 4 3 -2 6 -13 5 -11 0 -14 -3 -6 -6z"/>
<path d="M5805 6600 c-3 -6 1 -7 9 -4 18 7 21 14 7 14 -6 0 -13 -4 -16 -10z"/>
<path d="M5764 6574 c-18 -14 -18 -15 4 -4 12 6 22 13 22 15 0 8 -5 6 -26 -11z"/>
<path d="M5636 6473 c-32 -41 -43 -63 -32 -63 2 0 26 23 53 50 28 28 47 50 42
50 -4 0 -11 -4 -14 -10 -3 -5 -11 -10 -17 -10 -7 0 -6 6 2 15 7 8 10 15 8 15
-3 0 -22 -21 -42 -47z"/>
<path d="M5552 6370 c-12 -16 -34 -55 -47 -87 -14 -32 -18 -49 -10 -38 21 26
95 144 95 150 0 13 -17 1 -38 -25z"/>
<path d="M5526 6374 c-22 -21 -39 -54 -32 -62 3 -3 6 0 6 6 0 6 12 24 26 41
27 32 27 42 0 15z"/>
<path d="M5457 6245 c-9 -20 -17 -41 -17 -48 0 -7 9 8 20 32 24 52 21 66 -3
16z"/>
<path d="M5416 6125 c-3 -9 -6 -26 -5 -38 1 -16 4 -12 10 12 10 34 6 55 -5 26z"/>
<path d="M7611 5864 c0 -11 3 -14 6 -6 3 7 2 16 -1 19 -3 4 -6 -2 -5 -13z"/>
<path d="M7536 5631 c-10 -21 -31 -58 -47 -82 -16 -24 -29 -48 -29 -54 0 -5 9
4 21 20 28 42 81 146 76 151 -2 2 -12 -13 -21 -35z"/>
<path d="M5201 5464 c10 -10 34 -50 54 -89 37 -69 65 -109 72 -102 3 4 -46 98
-57 107 -3 3 -14 21 -24 41 -10 20 -28 42 -40 49 -20 12 -20 12 -5 -6z"/>
<path d="M12566 4552 c-3 -5 1 -9 9 -9 8 0 12 4 9 9 -3 4 -7 8 -9 8 -2 0 -6
-4 -9 -8z"/>
<path d="M7981 4228 c0 -59 7 -78 25 -71 10 4 11 9 5 17 -6 6 -11 31 -12 54
-4 55 -18 55 -18 0z"/>
<path d="M7900 4243 c0 -10 9 -69 20 -132 62 -356 50 -675 -45 -1196 -14 -77
-32 -174 -40 -215 -7 -41 -17 -83 -20 -92 -4 -11 -3 -18 4 -18 11 0 48 66 55
97 1 10 5 25 8 33 12 31 49 207 53 250 2 25 11 77 20 115 8 39 22 160 32 270
9 110 20 202 25 203 4 2 8 10 8 18 0 8 4 14 9 14 5 0 12 12 14 28 3 15 4 -40
2 -123 -3 -131 -8 -188 -29 -330 -3 -17 -13 -67 -24 -110 -11 -44 -23 -100
-27 -125 -12 -84 -37 -205 -45 -215 -4 -5 -10 -23 -13 -40 -5 -26 -4 -25 13
10 11 22 25 59 31 83 6 23 15 42 19 42 26 0 21 -162 -6 -229 -16 -39 -6 -58
23 -46 10 5 22 7 27 6 5 -1 6 7 3 19 -3 13 1 24 12 30 13 6 21 32 30 97 17
119 19 124 20 77 0 -23 7 -47 15 -53 11 -9 17 -2 30 40 10 28 15 58 12 66 -3
8 -1 23 4 34 6 10 15 38 20 61 5 24 27 124 50 222 37 165 40 191 41 325 0 87
-4 147 -10 149 -5 2 -7 10 -4 18 3 8 1 20 -4 27 -5 6 -20 41 -32 77 -26 76
-52 130 -63 130 -5 0 -8 12 -8 27 0 14 -3 24 -6 20 -3 -3 -6 -54 -6 -114 -1
-87 -2 -98 -8 -57 -4 29 -11 57 -15 64 -4 7 -7 37 -6 68 0 30 -2 52 -7 48 -4
-4 -12 25 -18 66 l-11 73 -3 -145 c-1 -80 -4 -137 -7 -127 -3 12 -11 16 -23
12 -22 -7 -23 -2 -50 195 -11 85 -27 178 -35 207 -16 53 -35 79 -35 46z m260
-501 c0 -93 -17 -86 -20 8 -3 80 -2 83 10 75 6 -3 10 -41 10 -83z m-33 -954
c-3 -8 -6 -5 -6 6 -1 11 2 17 5 13 3 -3 4 -12 1 -19z"/>
<path d="M10700 4126 c0 -2 7 -7 16 -10 8 -3 12 -2 9 4 -6 10 -25 14 -25 6z"/>
<path d="M8013 4065 c0 -27 2 -38 4 -22 2 15 2 37 0 50 -2 12 -4 0 -4 -28z"/>
<path d="M6225 4058 c-45 -36 -135 -129 -135 -140 0 -3 22 15 49 40 27 26 71
66 97 89 57 49 47 58 -11 11z"/>
<path d="M11740 4070 c-13 -11 -20 -23 -17 -26 3 -4 2 -15 -4 -26 -7 -14 -17
-18 -33 -14 -23 6 -59 -20 -175 -129 -155 -145 -160 -151 -155 -173 3 -11 12
-23 20 -26 8 -3 14 -10 14 -16 0 -6 11 -26 23 -43 13 -18 39 -63 58 -102 18
-38 42 -83 52 -98 11 -16 16 -35 12 -45 -3 -9 -3 -13 2 -9 7 7 63 -97 63 -118
0 -5 16 -41 35 -80 20 -38 38 -87 42 -108 4 -26 9 -34 14 -25 7 10 9 9 9 -4 0
-10 4 -18 10 -18 5 0 7 12 5 28 -16 94 -20 130 -14 126 4 -2 10 3 13 12 3 8
10 13 15 10 5 -3 11 1 14 9 4 9 1 12 -9 8 -7 -3 -14 0 -14 7 0 9 -3 10 -13 1
-11 -8 -18 -6 -32 9 -17 19 -17 21 0 40 17 19 19 19 37 4 10 -10 18 -24 19
-33 0 -9 5 -3 10 14 4 16 6 40 2 52 -3 15 -1 23 6 21 6 -2 20 11 31 28 18 28
19 33 5 44 -19 16 -19 73 0 110 16 31 29 37 40 19 5 -7 15 -4 32 6 23 16 27
16 41 1 25 -24 3 -52 -37 -48 -30 2 -31 1 -31 -37 0 -22 -5 -41 -12 -43 -7 -3
-9 -12 -5 -22 4 -11 13 -16 22 -12 8 3 17 1 20 -4 10 -16 13 -70 4 -76 -5 -3
-9 -10 -9 -16 0 -6 6 -5 16 2 13 11 19 10 37 -9 l22 -22 -28 -25 c-25 -21 -26
-27 -7 -26 10 1 -3 -103 -14 -110 -8 -5 -7 -8 3 -8 7 0 11 -6 8 -14 -3 -8 -1
-17 6 -20 7 -2 4 -5 -5 -5 -16 -1 -16 -3 2 -21 21 -21 26 -45 11 -55 -6 -3 -9
-50 -8 -104 1 -68 -1 -97 -9 -94 -6 2 -17 -4 -25 -14 -13 -16 -12 -17 4 -4 15
12 20 11 37 -4 20 -18 20 -18 0 -40 -16 -17 -20 -35 -20 -92 0 -69 -19 -130
-35 -115 -5 4 -5 1 -1 -6 5 -9 12 -10 19 -3 15 12 47 -10 47 -31 0 -9 -7 -21
-15 -28 -13 -10 -19 -9 -37 6 -21 19 -21 19 -11 -1 6 -11 8 -26 6 -32 -3 -7 0
-13 6 -13 13 0 14 -89 1 -110 -6 -9 -5 -17 2 -21 7 -4 4 -16 -7 -35 -10 -17
-11 -22 -2 -11 18 22 30 22 51 -1 15 -18 15 -20 -4 -37 -18 -16 -24 -17 -41
-7 -14 9 -25 10 -37 3 -13 -8 -23 -4 -45 22 -16 18 -27 25 -24 17 3 -14 -19
-33 -55 -46 -10 -3 -23 -25 -29 -48 -28 -106 -155 -387 -211 -469 -11 -15 -18
-33 -15 -40 2 -6 -4 -30 -13 -52 -18 -43 -17 -145 2 -145 5 0 0 -12 -11 -26
-20 -26 -21 -38 -21 -323 0 -163 4 -291 8 -286 4 6 23 19 42 29 19 10 45 28
57 38 12 11 26 17 33 13 6 -3 9 -2 8 3 -2 5 37 49 86 98 48 49 130 141 180
204 86 107 223 316 252 385 7 17 16 33 20 37 7 8 41 87 74 173 25 65 56 176
85 296 12 54 26 102 29 108 5 7 1 9 -9 5 -9 -4 -25 2 -35 11 -20 18 -20 18 0
38 12 10 27 16 35 14 8 -4 15 3 19 16 3 12 1 24 -5 25 -6 3 -6 8 -1 15 16 21
23 79 11 93 -8 10 -8 14 0 14 6 0 10 11 9 25 -3 27 -17 32 -36 13 -10 -10 -17
-8 -33 8 -20 20 -20 21 0 45 19 23 19 24 40 5 12 -11 21 -14 21 -8 0 6 -6 12
-12 14 -9 3 -8 9 4 21 15 16 17 16 22 -1 2 -9 4 28 4 83 -2 122 -4 132 -29
110 -22 -21 -59 -11 -59 14 0 10 7 24 15 31 12 10 20 9 39 -3 23 -15 36 -13
36 5 0 5 -4 6 -10 3 -6 -4 -7 5 -4 23 4 19 0 39 -11 55 -9 14 -15 34 -12 44 4
14 5 13 6 -4 0 -13 6 -23 11 -23 13 0 2 73 -11 78 -4 2 -5 10 -2 18 4 10 0 12
-11 8 -10 -4 -25 1 -37 11 -19 18 -19 18 2 41 12 13 26 21 30 18 12 -7 11 5
-8 104 -9 48 -23 95 -31 104 -7 9 -11 21 -8 27 17 28 -128 395 -194 490 -9 14
-47 71 -84 126 -72 109 -135 193 -158 213 -12 10 -19 8 -38 -8z m-20 -286 c11
-12 10 -18 -6 -35 -20 -20 -20 -20 -39 0 -14 17 -15 23 -5 36 16 19 34 19 50
-1z m180 1 c16 -19 7 -40 -22 -56 -13 -6 -20 -8 -15 -4 4 5 0 17 -10 27 -15
17 -15 19 3 33 24 18 29 18 44 0z m-520 -65 c0 -5 -4 -10 -10 -10 -5 0 -10 5
-10 10 0 6 5 10 10 10 6 0 10 -4 10 -10z m353 -222 c3 -10 2 -16 -3 -13 -4 3
-13 -2 -20 -9 -10 -13 -14 -12 -31 5 -19 19 -20 22 -4 39 14 15 21 17 35 7 10
-6 21 -19 23 -29z m351 -10 c-14 -14 -20 -16 -33 -6 -9 7 -18 14 -20 15 -2 2
4 12 14 23 17 19 19 19 37 3 17 -15 17 -17 2 -35z m-354 -203 c7 -9 8 -15 2
-15 -5 0 -12 7 -16 15 -3 8 -4 15 -2 15 2 0 9 -7 16 -15z m360 -30 c10 -12 10
-18 0 -30 -7 -8 -18 -15 -25 -15 -7 0 -18 7 -25 15 -10 12 -10 18 0 30 7 8 18
15 25 15 7 0 18 -7 25 -15z m-6 -260 c19 -14 19 -15 1 -35 -23 -25 -27 -25
-43 1 -10 16 -10 24 -1 35 14 17 19 17 43 -1z m3 -299 c-20 -20 -31 -20 -47
-1 -10 13 -9 19 5 36 19 20 19 20 38 0 18 -18 19 -21 4 -35z m-2 -232 c15 -15
15 -18 -1 -35 -16 -18 -19 -18 -35 -3 -14 13 -16 21 -8 35 12 23 23 24 44 3z
m205 -64 c0 -5 -7 -10 -16 -10 -8 0 -12 5 -9 10 3 6 10 10 16 10 5 0 9 -4 9
-10z m-13 -72 c-3 -7 -5 -2 -5 12 0 14 2 19 5 13 2 -7 2 -19 0 -25z m-192
-128 c18 -20 18 -21 -1 -35 -24 -18 -29 -18 -43 -1 -9 11 -9 19 1 35 16 26 20
26 43 1z m-381 -256 c21 -8 20 -40 -1 -48 -9 -4 -23 0 -31 8 -13 12 -13 18 -2
30 14 18 13 18 34 10z m196 -10 c11 -12 10 -18 -3 -32 -16 -15 -18 -15 -34 0
-13 14 -14 20 -3 32 7 9 16 16 20 16 4 0 13 -7 20 -16z m190 1 c10 -12 10 -18
0 -30 -7 -8 -18 -15 -25 -15 -7 0 -18 7 -25 15 -10 12 -10 18 0 30 7 8 18 15
25 15 7 0 18 -7 25 -15z"/>
<path d="M12070 4078 c0 -2 9 -11 20 -21 11 -9 20 -13 20 -7 0 5 -9 14 -20 20
-11 6 -20 9 -20 8z"/>
<path d="M6055 3820 c-74 -146 -81 -292 -20 -421 14 -30 22 -45 19 -34 -28 82
-36 200 -25 363 1 6 7 12 14 12 19 0 59 99 48 118 -7 12 -15 4 -36 -38z"/>
<path d="M5292 3840 c0 -14 2 -19 5 -12 2 6 2 18 0 25 -3 6 -5 1 -5 -13z"/>
<path d="M10454 3836 c22 -18 46 -21 46 -6 0 6 -6 10 -14 10 -8 0 -23 3 -33 6
-16 5 -16 4 1 -10z"/>
<path d="M5283 3770 c0 -25 2 -35 4 -22 2 12 2 32 0 45 -2 12 -4 2 -4 -23z"/>
<path d="M10448 3803 c12 -2 32 -2 45 0 12 2 2 4 -23 4 -25 0 -35 -2 -22 -4z"/>
<path d="M11357 3496 c-3 -7 -1 -19 4 -27 6 -10 9 -10 9 -1 0 6 5 12 10 12 7
0 7 -7 0 -20 -6 -12 -13 -107 -16 -220 -5 -194 -4 -200 15 -200 11 0 21 -7 23
-17 2 -9 1 -224 -2 -477 -5 -418 -7 -464 -22 -489 -21 -31 -24 -117 -5 -148 9
-16 9 -23 1 -26 -9 -3 -9 -15 1 -46 21 -72 26 -109 14 -101 -14 8 -29 -14 -22
-33 7 -19 28 4 75 82 55 92 93 172 122 260 115 343 124 650 29 1012 l-16 63
24 20 c21 17 21 19 4 13 -18 -6 -18 -5 -6 10 8 10 11 20 8 23 -10 11 -27 -7
-28 -29 -1 -18 -2 -18 -6 -4 -3 10 0 31 5 47 8 21 7 36 -1 54 -18 39 -29 31
-23 -16 5 -37 4 -40 -5 -18 -25 57 -65 129 -108 191 -17 26 -31 51 -31 55 0 5
-11 17 -24 26 -19 14 -25 15 -29 4z"/>
<path d="M11111 3454 c0 -11 3 -14 6 -6 3 7 2 16 -1 19 -3 4 -6 -2 -5 -13z"/>
<path d="M11540 3321 c0 -5 5 -13 10 -16 6 -3 10 -2 10 4 0 5 -4 13 -10 16 -5
3 -10 2 -10 -4z"/>
<path d="M11246 3194 c-4 -14 -3 -31 3 -37 5 -7 14 -28 19 -47 9 -30 10 -31
11 -10 1 14 -6 36 -15 49 -12 17 -13 26 -5 34 13 13 15 37 2 37 -5 0 -12 -12
-15 -26z"/>
<path d="M58 3023 c34 -2 90 -2 125 0 34 2 6 3 -63 3 -69 0 -97 -1 -62 -3z"/>
<path d="M11715 2949 c-4 -6 -5 -12 -2 -15 2 -3 7 2 10 11 7 17 1 20 -8 4z"/>
<path d="M8040 2536 c-6 -9 -10 -21 -8 -28 3 -8 9 -4 17 10 15 28 9 39 -9 18z"/>
<path d="M11734 2425 c-4 -8 -4 -24 -1 -35 3 -11 1 -23 -5 -26 -5 -4 -7 -20
-4 -37 3 -16 2 -35 -3 -41 -20 -24 -12 -96 10 -96 5 0 9 9 9 20 0 11 5 20 11
20 7 0 8 7 4 18 -4 9 -9 41 -10 70 -2 42 1 52 12 48 11 -4 11 -1 3 14 -6 11
-8 20 -4 20 3 0 1 6 -5 14 -9 11 -9 15 1 19 10 4 10 6 0 6 -7 1 -15 -6 -18
-14z m-3 -186 l-10 -24 0 26 c-1 14 2 29 6 33 12 12 14 -9 4 -35z"/>
<path d="M6800 2270 c0 -5 7 -10 15 -10 8 0 15 5 15 10 0 6 -7 10 -15 10 -8 0
-15 -4 -15 -10z"/>
<path d="M9130 2230 c20 -13 33 -13 25 0 -3 6 -14 10 -23 10 -15 0 -15 -2 -2
-10z"/>
<path d="M9096 2105 c4 -8 15 -15 27 -15 23 0 22 2 -10 19 -19 10 -22 9 -17
-4z"/>
<path d="M9158 2073 c6 -2 18 -2 25 0 6 3 1 5 -13 5 -14 0 -19 -2 -12 -5z"/>
<path d="M11250 2040 c-12 -23 -19 -44 -16 -47 2 -3 14 14 25 38 27 55 19 64
-9 9z"/>
<path d="M11259 2001 c-8 -17 -20 -30 -28 -28 -9 1 -30 -26 -53 -70 -26 -48
-34 -71 -24 -67 22 8 20 -13 -1 -25 -16 -9 -16 -10 -1 -11 9 0 23 7 32 15 8 8
19 15 25 15 22 0 51 53 51 96 0 23 5 55 10 70 15 38 5 42 -11 5z"/>
<path d="M9192 1896 c-35 -36 -50 -59 -46 -70 3 -9 10 -16 15 -16 12 0 11 18
-1 22 -6 2 8 21 30 43 38 37 42 39 54 23 16 -22 27 -23 20 -3 -4 8 -2 15 4 15
6 0 13 -6 15 -12 3 -7 6 -8 6 -3 0 6 -3 16 -8 24 -8 13 -12 13 -27 0 -16 -13
-17 -12 -12 9 4 12 5 22 5 22 -1 0 -26 -24 -55 -54z"/>
<path d="M7310 1910 c-41 -11 -115 -27 -165 -36 -104 -19 -123 -30 -69 -40 34
-6 57 -3 146 23 13 4 15 0 11 -16 -4 -16 -1 -21 13 -21 41 0 96 23 125 51 16
16 28 29 27 29 -2 0 -32 -9 -68 -20 -92 -28 -97 -24 -11 10 113 44 111 50 -9
20z"/>
<path d="M9200 1875 c-6 -8 -9 -19 -5 -24 3 -6 1 -19 -5 -30 -13 -25 -71 -27
-63 -2 3 11 0 10 -12 -4 -9 -12 -11 -21 -5 -23 14 -5 13 -32 -2 -32 -10 0 -10
-2 0 -9 7 -4 12 -12 11 -17 -5 -27 1 -36 16 -24 22 19 20 -12 -2 -32 -23 -20
-106 -29 -99 -11 3 8 -2 13 -13 13 -11 0 -21 6 -24 13 -6 15 -15 9 -104 -68
-37 -33 -86 -74 -107 -91 l-40 -31 40 -44 c57 -63 86 -90 134 -124 23 -16 58
-42 79 -57 149 -113 287 -184 479 -247 145 -48 196 -58 207 -41 5 9 1 10 -16
5 -13 -3 -19 -3 -12 2 7 5 12 54 15 135 3 124 2 128 -17 122 -15 -4 -16 -3 -6
4 18 13 8 18 -83 47 -109 35 -180 70 -286 141 -110 73 -135 94 -183 149 l-35
40 27 1 c14 1 20 -1 13 -3 -10 -4 -10 -8 -1 -19 18 -22 28 -17 85 44 56 60 75
93 55 100 -18 6 -13 19 12 27 21 7 21 8 -6 12 -27 4 -29 7 -25 49 3 46 -2 53
-22 29z m22 -130 c4 -20 3 -23 -8 -14 -16 13 -19 39 -5 39 5 0 11 -11 13 -25z
m-30 -50 c0 -5 -5 -11 -11 -13 -6 -2 -11 4 -11 13 0 9 5 15 11 13 6 -2 11 -8
11 -13z m-57 -55 c3 -5 1 -10 -4 -10 -6 0 -11 5 -11 10 0 6 2 10 4 10 3 0 8
-4 11 -10z"/>
<path d="M9175 1840 c-3 -5 -1 -10 4 -10 6 0 11 5 11 10 0 6 -2 10 -4 10 -3 0
-8 -4 -11 -10z"/>
<path d="M9300 1820 c0 -5 5 -10 10 -10 6 0 10 5 10 10 0 6 -4 10 -10 10 -5 0
-10 -4 -10 -10z"/>
<path d="M6955 1805 c-5 -2 -36 -6 -67 -10 -59 -7 -76 -19 -35 -27 25 -5 187
9 227 19 21 5 19 7 -20 14 -48 8 -89 10 -105 4z"/>
<path d="M11185 1790 c3 -5 8 -10 11 -10 2 0 4 5 4 10 0 6 -5 10 -11 10 -5 0
-7 -4 -4 -10z"/>
<path d="M11105 1780 c-3 -5 -1 -10 4 -10 6 0 11 5 11 10 0 6 -2 10 -4 10 -3
0 -8 -4 -11 -10z"/>
<path d="M9067 1763 c-13 -15 -13 -20 -1 -30 19 -18 29 -16 14 2 -10 12 -10
18 0 30 17 21 7 19 -13 -2z"/>
<path d="M9027 1734 c-3 -3 -3 -13 0 -22 5 -11 3 -13 -7 -7 -9 5 -11 4 -6 -3
10 -16 14 -15 26 7 9 19 0 37 -13 25z"/>
<path d="M8678 1703 c7 -3 16 -2 19 1 4 3 -2 6 -13 5 -11 0 -14 -3 -6 -6z"/>
<path d="M8575 1680 l-20 -9 20 0 c11 0 29 4 40 9 l20 9 -20 0 c-11 0 -29 -4
-40 -9z"/>
<path d="M8458 1651 c-86 -25 -80 -32 9 -9 43 11 80 22 82 24 9 8 -36 1 -91
-15z"/>
<path d="M10962 1629 c-9 -11 -48 -46 -87 -77 -38 -31 -72 -59 -75 -62 -36
-40 -223 -131 -365 -178 -143 -48 -291 -72 -444 -72 l-111 0 0 -129 c0 -94 -3
-131 -12 -134 -9 -4 -8 -6 2 -6 13 -1 13 -3 1 -10 -23 -15 111 -24 236 -17
132 7 323 45 435 86 84 31 310 146 362 184 17 13 39 26 50 30 10 3 16 12 13
21 -4 9 -1 12 7 9 7 -3 19 2 26 11 11 13 10 15 -1 10 -12 -4 -13 24 -9 175 3
99 2 180 -3 180 -4 0 -15 -9 -25 -21z"/>
<path d="M11420 1579 c0 -5 5 -7 10 -4 6 3 10 8 10 11 0 2 -4 4 -10 4 -5 0
-10 -5 -10 -11z"/>
<path d="M11205 1529 c-4 -6 -5 -12 -2 -15 2 -3 7 2 10 11 7 17 1 20 -8 4z"/>
<path d="M11239 1523 c-13 -16 -12 -17 4 -4 9 7 17 15 17 17 0 8 -8 3 -21 -13z"/>
<path d="M7925 1495 c-40 -18 -21 -18 35 -1 32 10 38 15 20 15 -14 0 -38 -6
-55 -14z"/>
<path d="M11199 1473 c-13 -16 -12 -17 4 -4 16 13 21 21 13 21 -2 0 -10 -8
-17 -17z"/>
<path d="M7008 1473 c7 -3 16 -2 19 1 4 3 -2 6 -13 5 -11 0 -14 -3 -6 -6z"/>
<path d="M7828 1463 c7 -3 16 -2 19 1 4 3 -2 6 -13 5 -11 0 -14 -3 -6 -6z"/>
<path d="M7750 1450 c-12 -8 -12 -10 5 -9 11 0 29 4 40 9 18 8 18 9 -5 9 -14
0 -32 -4 -40 -9z"/>
<path d="M11160 1445 c-7 -9 -11 -18 -8 -20 3 -3 11 1 18 10 7 9 11 18 8 20
-3 3 -11 -1 -18 -10z"/>
<path d="M11119 1393 c-13 -16 -12 -17 4 -4 9 7 17 15 17 17 0 8 -8 3 -21 -13z"/>
<path d="M8816 1382 c-3 -6 0 -14 7 -19 8 -4 16 -13 18 -20 3 -8 9 -8 23 3 19
13 19 14 2 14 -11 0 -24 7 -31 17 -8 10 -14 12 -19 5z"/>
<path d="M10955 1133 c-16 -8 -31 -17 -33 -18 -5 -4 42 -85 49 -85 3 0 4 15 3
32 -1 18 3 37 9 41 7 5 3 7 -10 4 -13 -3 -23 -2 -23 3 0 4 10 15 23 23 29 21
20 21 -18 0z"/>
<path d="M8225 860 c-3 -5 -1 -10 4 -10 6 0 11 5 11 10 0 6 -2 10 -4 10 -3 0
-8 -4 -11 -10z"/>
<path d="M11160 720 c6 -11 13 -20 16 -20 2 0 0 9 -6 20 -6 11 -13 20 -16 20
-2 0 0 -9 6 -20z"/>
<path d="M2239 466 c-3 -3 -133 -6 -288 -7 l-282 -1 3 -21 c3 -21 8 -22 98
-23 102 0 167 -18 206 -55 13 -12 28 -18 34 -14 9 6 9 10 -1 16 -9 5 20 9 72
9 85 0 86 0 122 -35 21 -20 37 -40 37 -45 0 -6 18 -10 40 -10 22 0 40 5 40 10
0 6 12 22 28 35 23 21 25 26 12 35 -11 7 4 10 53 10 38 0 67 4 67 10 0 6 18
10 40 10 22 0 40 -4 40 -9 0 -4 30 -11 67 -15 37 -4 73 -12 80 -18 19 -16 17
-68 -3 -68 -11 0 -14 -5 -10 -16 3 -9 6 -19 7 -22 0 -4 4 2 9 13 7 16 9 13 9
-17 1 -27 5 -38 16 -38 12 0 15 -18 15 -100 l0 -100 89 0 88 0 -5 98 c-2 53
-10 114 -17 135 -7 21 -11 46 -8 56 3 10 0 22 -6 25 -6 4 -11 16 -11 27 0 10
-5 19 -10 19 -6 0 -14 8 -17 18 -4 9 -20 30 -35 46 -24 23 -35 27 -67 24 -22
-2 -37 0 -35 4 3 5 -69 8 -159 8 -90 0 -197 3 -238 6 -41 3 -77 3 -80 0z
m-399 -26 c0 -11 -43 -12 -115 0 -47 7 -45 7 33 9 49 0 82 -3 82 -9z"/>
<path d="M5730 460 c-47 -3 -71 -8 -55 -9 19 -2 24 -5 13 -8 -22 -6 -23 -42
-3 -120 8 -31 16 -91 17 -133 1 -47 3 -59 5 -32 5 54 33 60 33 6 0 -19 6 -42
14 -50 16 -16 86 -19 86 -4 0 6 6 10 14 10 18 0 24 37 32 190 3 69 11 128 16
131 27 17 -68 27 -172 19z m110 -325 c0 -11 -11 -15 -40 -15 -29 0 -40 4 -40
15 0 11 11 15 40 15 29 0 40 -4 40 -15z"/>
<path d="M4800 405 c0 -33 4 -45 15 -45 13 0 15 -27 15 -180 l0 -180 136 0
137 0 -7 31 c-3 17 -6 44 -6 60 0 24 -4 29 -25 29 l-25 0 0 133 c-1 100 -4
137 -15 151 -19 26 -19 34 3 39 9 3 -38 5 -105 6 l-123 1 0 -45z"/>
<path d="M1662 385 c0 -16 2 -22 5 -12 2 9 2 23 0 30 -3 6 -5 -1 -5 -18z"/>
<path d="M2290 91 c0 -16 -3 -43 -6 -60 l-6 -31 86 0 c79 0 86 2 86 20 0 11
-4 20 -9 20 -5 0 -12 19 -16 43 -4 23 -10 34 -12 25 -6 -24 -93 -26 -93 -3 0
8 -7 15 -15 15 -10 0 -15 -10 -15 -29z"/>
<path d="M5112 20 c0 -14 2 -19 5 -12 2 6 2 18 0 25 -3 6 -5 1 -5 -13z"/>
</g>
</svg>
